%
M48
M72
T01C0.0160
T02C0.0197
T03C0.0200
T04C0.0205
T05C0.0394
T06C0.0400
T07C0.0630
T08C0.0709
T09C0.0728
T10C0.0941
T11C0.1360
T12C0.1693
T13C0.1772
%
T01
X17073Y16838
X17448Y16963
X17823Y16963
X24537Y17612
X24912Y17612
X25287Y17612
X32751Y18191
X33126Y18066
X33376Y17816
X40962Y18276
X41212Y18026
X41462Y17776
X48537Y18362
X48787Y18112
X49037Y17862
X56145Y18325
X56395Y18075
X56645Y17825
T02
X61741Y25600
X62741Y25600
X62741Y26600
X61741Y26600
X63741Y26600
X64741Y26600
X64741Y25600
X63741Y25600
X65741Y25600
X66741Y25600
X67741Y25600
X68366Y25975
X68741Y25600
X68741Y26600
X65741Y26600
X63241Y28100
X62241Y28100
X62241Y29100
X63241Y29100
X63241Y30100
X62241Y30100
X64241Y30100
X64241Y31100
X63241Y31100
X63241Y32100
X64241Y32100
X64241Y33100
X63241Y33100
X63241Y34100
X64241Y34100
T03
X65616Y33100
X65741Y34100
X66741Y34100
X67741Y34100
X68741Y34100
X67491Y33100
X65616Y29600
X65991Y29100
X65741Y28600
X66491Y28600
X67241Y29350
X67741Y29350
X68991Y29100
X68741Y23600
X67741Y23600
X66741Y23600
X65741Y23600
X64741Y23600
X63741Y23600
X62741Y23600
X61741Y23600
X60741Y23600
X59741Y23600
X58741Y23600
X58741Y22600
X59741Y22600
X60741Y22600
X61741Y22600
X62741Y22600
X63741Y22600
X64741Y22600
X65741Y22600
X66741Y22600
X67741Y22600
X68741Y22600
X58241Y17600
X57741Y16600
X56241Y16600
X53741Y18100
X52741Y18100
X51741Y18100
X50741Y18100
X49741Y18100
X49241Y17100
X50241Y17100
X47241Y18600
X46241Y18600
X45241Y18600
X44241Y18600
X43241Y18600
X42241Y18600
X42741Y17600
X43741Y17600
X44741Y17600
X45741Y17600
X46741Y17600
X49241Y19100
X50241Y19100
X51241Y19100
X52241Y19100
X53241Y19100
X54241Y19100
X55741Y20600
X56741Y20600
X56741Y21600
X57741Y21600
X57741Y22600
X57241Y19600
X57741Y18600
X42241Y16600
X41241Y16600
X39741Y17600
X38741Y17600
X37741Y17600
X36741Y17600
X35741Y17600
X34741Y17600
X34241Y16600
X33241Y16600
X35241Y16600
X36241Y16600
X37241Y16600
X38241Y16600
X39241Y16600
X31741Y16100
X30741Y16100
X29741Y16100
X28741Y16100
X27741Y16100
X26741Y16100
X25741Y16100
X26241Y17100
X27241Y17100
X28241Y17100
X29241Y17100
X30241Y17100
X31241Y17100
X23741Y15600
X22741Y15600
X21741Y15600
X20741Y15600
X19741Y15600
X18741Y15600
X17741Y15600
X18366Y16350
X19241Y16600
X20241Y16600
X21241Y16600
X22241Y16600
X23241Y16600
X16241Y14600
X16241Y13600
X15241Y13600
X15241Y12600
X14241Y12600
X16241Y12600
X17241Y12600
X16241Y11600
X15241Y11600
X14241Y11600
X13241Y11600
X14241Y10600
X15241Y10600
X12366Y9225
X11616Y9225
X10866Y9225
X10116Y9225
X9366Y9225
X8616Y9225
X7866Y9225
X8616Y9725
X9366Y9725
X10116Y9725
X10866Y9725
X11616Y9725
X21241Y4600
X22241Y4600
X23241Y4100
X24241Y4600
X25241Y4100
X26241Y4600
X28741Y4600
X29741Y4600
X30741Y4100
X31741Y4100
X32741Y4100
X33741Y4100
X34741Y4100
X34241Y3100
X33241Y3100
X32241Y3100
X31241Y3100
X30241Y3100
X26741Y2600
X25741Y3100
X24741Y2600
X23741Y3100
X22741Y3100
X19241Y3100
X18241Y3100
X17241Y3100
X16241Y3100
X15241Y3100
X15741Y4100
X16741Y4100
X17741Y4100
X18741Y4100
X12741Y3100
X11741Y3100
X10741Y3100
X9741Y3100
X9241Y4100
X10241Y4100
X11241Y4100
X12241Y4100
X35241Y3100
X37241Y4600
X38241Y4600
X39241Y4100
X40241Y4100
X41241Y4100
X42241Y4600
X43241Y4100
X44741Y4600
X45741Y4600
X46741Y4100
X47741Y4100
X48741Y4100
X49741Y4100
X50741Y4100
X52241Y4600
X53241Y4600
X54241Y4100
X55241Y4100
X56241Y4100
X57241Y4100
X58241Y4600
X60241Y5100
X61241Y5100
X62241Y5100
X63241Y5100
X64241Y5100
X63741Y6100
X62741Y6100
X61741Y6100
X63241Y7100
X63741Y8100
X64741Y8100
X65741Y8100
X66741Y8100
X67741Y8100
X67241Y7100
X66241Y7100
X64741Y4100
X63741Y4100
X62741Y4100
X61741Y4100
X61241Y3100
X62241Y3100
X63241Y3100
X64241Y3100
X57741Y3100
X56741Y3100
X55741Y3100
X54741Y3100
X53741Y3100
X51241Y3100
X50241Y3100
X49241Y3100
X48241Y3100
X47241Y3100
X46241Y3100
X43741Y3100
X42741Y2600
X41741Y3100
X40741Y3100
X39741Y3100
X38741Y3100
X10866Y18850
X11741Y19100
X10741Y19600
X11741Y20100
X12741Y20100
X12741Y21100
X13741Y21100
X11741Y21100
X10741Y20600
X9741Y20600
X9741Y19600
X9741Y18725
X8741Y18850
X7741Y18975
X6741Y19350
X6241Y19350
X5741Y19350
X6741Y19850
X7241Y19850
X6741Y21850
X6241Y21850
X5991Y22350
X5991Y23600
X6241Y24100
X6741Y24100
X9741Y24100
X9741Y24600
X9741Y25100
X10241Y24600
X10741Y24100
X10241Y23600
X9741Y23600
X10741Y25100
X10241Y25600
X9741Y25600
X7116Y26100
X6991Y26600
X6241Y26600
X6241Y27100
X6241Y27600
X6991Y27600
X6991Y27100
X6991Y28100
X6991Y28600
X7116Y29100
X6241Y29100
X6241Y28600
X6241Y28100
X8741Y32100
X9741Y32100
X10741Y32100
X10741Y33100
X10741Y33850
X10241Y34600
X9241Y34600
X8741Y33850
X9741Y33850
X9741Y33100
X8741Y33100
X7741Y33850
X6741Y33850
X5741Y33850
X6241Y34600
X7241Y34600
X8241Y34600
T04
X8116Y17975
X8116Y16975
X9491Y16975
X9491Y17975
X9491Y15975
X8116Y15975
X8116Y14975
X9491Y14975
X9491Y13975
X9491Y12975
X8116Y12975
X8116Y13975
X8116Y11975
X9491Y11975
X9491Y10975
X8116Y10975
T05
X5616Y26975
X9116Y28850
X66366Y26475
X68616Y28725
T06
X6991Y17600
X5991Y17600
X5991Y16600
X6991Y16600
X6991Y15600
X5991Y15600
X5991Y14600
X6991Y14600
X6991Y13600
X5991Y13600
X5991Y12600
X6991Y12600
X6991Y11600
X5991Y11600
X5991Y10600
X6991Y10600
X6991Y9600
X5991Y9600
T07
X13893Y3578
X21491Y3578
X29090Y3578
X37643Y3578
X45241Y3578
X52840Y3578
X60438Y3578
X60438Y32122
X52840Y32122
X45241Y32122
X37643Y32122
X29090Y32122
X21491Y32122
X13893Y32122
T08
X5879Y25632
X6942Y22975
X5879Y20318
T09
X5757Y2876
X7725Y2876
X7725Y5824
X5757Y5824
X5757Y29876
X7725Y29876
X7725Y32824
X5757Y32824
X66507Y32824
X68475Y32824
X68475Y29876
X66507Y29876
X66507Y5824
X68475Y5824
X68475Y2876
X66507Y2876
T10
X58341Y3704
X42474Y3748
X26599Y3748
X24508Y3748
X24508Y31952
X26599Y31952
X42474Y31952
X58341Y31996
T11
X58341Y28716
X56258Y28716
X64641Y28716
X42474Y28716
X40383Y28716
X26599Y28716
X24508Y28716
X10724Y28716
X10724Y6984
X24508Y6984
X26599Y6984
X40383Y6984
X42474Y6984
X56258Y6984
X58341Y6984
X64641Y6984
T12
X67501Y4350
X67491Y31350
X6741Y31350
X6741Y4350
T13
X8241Y21558
X8241Y24392
M30
