G75*
G70*
%OFA0B0*%
%FSLAX24Y24*%
%IPPOS*%
%LPD*%
%AMOC8*
5,1,8,0,0,1.08239X$1,22.5*
%
%ADD10R,0.1750X0.1250*%
%ADD11C,0.0080*%
%ADD12C,0.0160*%
%ADD13C,0.1773*%
%ADD14C,0.0110*%
%ADD15R,0.2400X0.8250*%
%ADD16C,0.0300*%
%ADD17C,0.1261*%
%ADD18R,0.0789X0.1340*%
%ADD19C,0.1440*%
%ADD20R,0.2580X0.2970*%
%ADD21C,0.1021*%
%ADD22R,0.1340X0.0789*%
%ADD23R,0.2627X0.3017*%
%ADD24R,0.2580X0.2970*%
%ADD25C,0.1458*%
%ADD26C,0.2442*%
%ADD27C,0.1143*%
%ADD28C,0.0820*%
%ADD29C,0.0425*%
%ADD30C,0.2173*%
%ADD31C,0.0671*%
D10*
X010241Y034100D03*
X017616Y034100D03*
X058616Y034100D03*
X066241Y034100D03*
D11*
X067256Y034028D02*
X067576Y034028D01*
X067576Y034189D01*
X067523Y034242D01*
X067416Y034242D01*
X067363Y034189D01*
X067363Y034028D01*
X067576Y033874D02*
X067576Y033660D01*
X067576Y033767D02*
X067256Y033767D01*
X067256Y034397D02*
X067256Y034610D01*
X067256Y034503D02*
X067576Y034503D01*
X067470Y034397D01*
X057576Y034450D02*
X057523Y034397D01*
X057576Y034450D02*
X057576Y034557D01*
X057523Y034610D01*
X057470Y034610D01*
X057256Y034397D01*
X057256Y034610D01*
X057416Y034242D02*
X057363Y034189D01*
X057363Y034028D01*
X057256Y034028D02*
X057576Y034028D01*
X057576Y034189D01*
X057523Y034242D01*
X057416Y034242D01*
X057576Y033874D02*
X057576Y033660D01*
X057576Y033767D02*
X057256Y033767D01*
X068434Y022235D02*
X068381Y022182D01*
X068381Y022075D01*
X068434Y022022D01*
X068488Y022022D01*
X068541Y022075D01*
X068541Y022182D01*
X068488Y022235D01*
X068434Y022235D01*
X068541Y022182D02*
X068595Y022235D01*
X068648Y022235D01*
X068701Y022182D01*
X068701Y022075D01*
X068648Y022022D01*
X068595Y022022D01*
X068541Y022075D01*
X068381Y021867D02*
X068381Y021653D01*
X068381Y021760D02*
X068701Y021760D01*
X068595Y021653D01*
X068648Y021499D02*
X068434Y021285D01*
X068381Y021338D01*
X068381Y021445D01*
X068434Y021499D01*
X068648Y021499D01*
X068701Y021445D01*
X068701Y021338D01*
X068648Y021285D01*
X068434Y021285D01*
X068381Y021130D02*
X068381Y020917D01*
X068595Y021130D01*
X068648Y021130D01*
X068701Y021077D01*
X068701Y020970D01*
X068648Y020917D01*
X068595Y020394D02*
X068328Y020394D01*
X068274Y020340D01*
X068274Y020287D01*
X068381Y020233D02*
X068381Y020394D01*
X068381Y020233D02*
X068434Y020180D01*
X068595Y020180D01*
X068541Y020025D02*
X068381Y020025D01*
X068541Y020025D02*
X068595Y019972D01*
X068595Y019812D01*
X068381Y019812D01*
X068381Y019657D02*
X068541Y019657D01*
X068595Y019604D01*
X068595Y019443D01*
X068381Y019443D01*
X068488Y019289D02*
X068488Y019075D01*
X068541Y019075D02*
X068434Y019075D01*
X068381Y019129D01*
X068381Y019235D01*
X068488Y019289D02*
X068541Y019289D01*
X068595Y019235D01*
X068595Y019129D01*
X068541Y019075D01*
X068381Y018920D02*
X068541Y018760D01*
X068488Y018707D02*
X068701Y018920D01*
X068701Y018707D02*
X068381Y018707D01*
X068381Y018184D02*
X068541Y018184D01*
X068595Y018130D01*
X068595Y017970D01*
X068381Y017970D01*
X068381Y017831D02*
X068381Y017725D01*
X068381Y017778D02*
X068595Y017778D01*
X068595Y017725D01*
X068701Y017778D02*
X068755Y017778D01*
X068595Y017586D02*
X068595Y017479D01*
X068648Y017533D02*
X068434Y017533D01*
X068381Y017586D01*
X068434Y017324D02*
X068488Y017271D01*
X068488Y017164D01*
X068541Y017111D01*
X068595Y017164D01*
X068595Y017324D01*
X068434Y017324D02*
X068381Y017271D01*
X068381Y017111D01*
X068381Y016956D02*
X068595Y016956D01*
X068595Y016743D02*
X068434Y016743D01*
X068381Y016796D01*
X068381Y016956D01*
X068701Y016588D02*
X068701Y016481D01*
X068701Y016534D02*
X068434Y016534D01*
X068381Y016481D01*
X068381Y016428D01*
X068434Y016374D01*
X068381Y015851D02*
X068381Y015691D01*
X068434Y015638D01*
X068595Y015638D01*
X068541Y015483D02*
X068595Y015429D01*
X068595Y015269D01*
X068701Y015269D02*
X068381Y015269D01*
X068381Y015429D01*
X068434Y015483D01*
X068541Y015483D01*
X068595Y015851D02*
X068328Y015851D01*
X068274Y015798D01*
X068274Y015744D01*
X068381Y014762D02*
X068434Y014709D01*
X068648Y014709D01*
X068595Y014762D02*
X068595Y014655D01*
X068595Y014501D02*
X068381Y014501D01*
X068381Y014340D01*
X068434Y014287D01*
X068595Y014287D01*
X068541Y014132D02*
X068595Y014079D01*
X068595Y013972D01*
X068541Y013919D01*
X068434Y013919D01*
X068381Y013972D01*
X068381Y014079D01*
X068434Y014132D01*
X068541Y014132D01*
X068595Y013764D02*
X068328Y013764D01*
X068274Y013711D01*
X068274Y013657D01*
X068381Y013604D02*
X068381Y013764D01*
X068381Y013604D02*
X068434Y013550D01*
X068595Y013550D01*
X068541Y013396D02*
X068381Y013396D01*
X068381Y013236D01*
X068434Y013182D01*
X068488Y013236D01*
X068488Y013396D01*
X068541Y013396D02*
X068595Y013342D01*
X068595Y013236D01*
X068381Y013027D02*
X068381Y012814D01*
X068701Y012814D01*
X018951Y033535D02*
X018951Y033749D01*
X018951Y033642D02*
X018631Y033642D01*
X018631Y033903D02*
X018951Y033903D01*
X018951Y034064D01*
X018898Y034117D01*
X018791Y034117D01*
X018738Y034064D01*
X018738Y033903D01*
X018631Y034272D02*
X018845Y034485D01*
X018898Y034485D01*
X018951Y034432D01*
X018951Y034325D01*
X018898Y034272D01*
X018631Y034272D02*
X018631Y034485D01*
X017155Y031216D02*
X016941Y031216D01*
X016834Y031216D02*
X016781Y031216D01*
X016888Y031077D02*
X016995Y031077D01*
X017101Y030971D01*
X016995Y030824D02*
X016995Y030770D01*
X016888Y030664D01*
X016781Y030664D02*
X016995Y030664D01*
X016941Y030509D02*
X016888Y030509D01*
X016888Y030295D01*
X016941Y030295D02*
X016995Y030349D01*
X016995Y030456D01*
X016941Y030509D01*
X016781Y030456D02*
X016781Y030349D01*
X016834Y030295D01*
X016941Y030295D01*
X016995Y030141D02*
X016995Y029980D01*
X016941Y029927D01*
X016834Y029927D01*
X016781Y029980D01*
X016781Y030141D01*
X017101Y030141D01*
X017406Y030087D02*
X017459Y030141D01*
X017513Y030087D01*
X017513Y029980D01*
X017566Y029927D01*
X017620Y029980D01*
X017620Y030141D01*
X017726Y030295D02*
X017620Y030402D01*
X017513Y030402D01*
X017406Y030295D01*
X017406Y030087D02*
X017406Y029927D01*
X017620Y029780D02*
X017620Y029727D01*
X017513Y029620D01*
X017406Y029620D02*
X017620Y029620D01*
X017566Y029465D02*
X017513Y029465D01*
X017513Y029252D01*
X017566Y029252D02*
X017620Y029305D01*
X017620Y029412D01*
X017566Y029465D01*
X017406Y029412D02*
X017406Y029305D01*
X017459Y029252D01*
X017566Y029252D01*
X017620Y029097D02*
X017620Y028937D01*
X017566Y028884D01*
X017459Y028884D01*
X017406Y028937D01*
X017406Y029097D01*
X017726Y029097D01*
X017726Y028691D02*
X017406Y028691D01*
X017406Y028638D02*
X017406Y028745D01*
X017459Y028483D02*
X017566Y028483D01*
X017620Y028430D01*
X017620Y028323D01*
X017566Y028270D01*
X017459Y028270D01*
X017406Y028323D01*
X017406Y028430D01*
X017459Y028483D01*
X017726Y028638D02*
X017726Y028691D01*
X017726Y028115D02*
X017406Y028115D01*
X017566Y028115D02*
X017566Y027901D01*
X017406Y027901D02*
X017726Y027901D01*
X017726Y027341D02*
X017406Y027341D01*
X017406Y027394D02*
X017406Y027287D01*
X017406Y027149D02*
X017406Y027042D01*
X017406Y027095D02*
X017726Y027095D01*
X017726Y027042D01*
X017566Y026887D02*
X017513Y026887D01*
X017513Y026674D01*
X017566Y026674D02*
X017620Y026727D01*
X017620Y026834D01*
X017566Y026887D01*
X017406Y026834D02*
X017406Y026727D01*
X017459Y026674D01*
X017566Y026674D01*
X017459Y026519D02*
X017406Y026465D01*
X017406Y026359D01*
X017459Y026305D01*
X017673Y026305D01*
X017726Y026359D01*
X017726Y026465D01*
X017673Y026519D01*
X017726Y026167D02*
X017620Y026060D01*
X017513Y026060D01*
X017406Y026167D01*
X017101Y026535D02*
X016995Y026428D01*
X016888Y026428D01*
X016781Y026535D01*
X016781Y026674D02*
X016781Y026834D01*
X016834Y026887D01*
X017048Y026887D01*
X017101Y026834D01*
X017101Y026674D01*
X016781Y026674D01*
X016781Y027042D02*
X016781Y027149D01*
X016781Y027095D02*
X016995Y027095D01*
X016995Y027042D01*
X017101Y027095D02*
X017155Y027095D01*
X016995Y027287D02*
X016781Y027287D01*
X016888Y027287D02*
X016995Y027394D01*
X016995Y027448D01*
X016941Y027594D02*
X016995Y027648D01*
X016995Y027755D01*
X016941Y027808D01*
X016888Y027808D01*
X016888Y027594D01*
X016941Y027594D02*
X016834Y027594D01*
X016781Y027648D01*
X016781Y027755D01*
X016834Y027963D02*
X016781Y028016D01*
X016781Y028176D01*
X016995Y028176D02*
X016995Y028016D01*
X016941Y027963D01*
X016834Y027963D01*
X016995Y028331D02*
X016995Y028438D01*
X017048Y028384D02*
X016834Y028384D01*
X016781Y028438D01*
X016834Y028945D02*
X016781Y028998D01*
X016781Y029105D01*
X016834Y029158D01*
X016888Y029158D01*
X016941Y029105D01*
X016941Y028998D01*
X016995Y028945D01*
X017048Y028945D01*
X017101Y028998D01*
X017101Y029105D01*
X017048Y029158D01*
X016941Y029313D02*
X016995Y029367D01*
X016995Y029473D01*
X016941Y029527D01*
X016834Y029527D01*
X016781Y029473D01*
X016781Y029367D01*
X016834Y029313D01*
X016941Y029313D01*
X016781Y029682D02*
X016781Y029788D01*
X016781Y029735D02*
X017101Y029735D01*
X017101Y029682D01*
X017406Y030541D02*
X017459Y030541D01*
X017566Y030541D02*
X017780Y030541D01*
X016888Y031077D02*
X016781Y030971D01*
X017726Y027341D02*
X017726Y027287D01*
X016995Y025905D02*
X016781Y025691D01*
X016781Y025537D02*
X016781Y025377D01*
X016834Y025323D01*
X016888Y025377D01*
X016888Y025537D01*
X016941Y025537D02*
X016781Y025537D01*
X016941Y025537D02*
X016995Y025483D01*
X016995Y025377D01*
X017101Y025168D02*
X016781Y025168D01*
X016781Y024955D02*
X017101Y024955D01*
X016995Y025062D01*
X017101Y025168D01*
X017406Y025168D02*
X017406Y025008D01*
X017459Y024955D01*
X017513Y025008D01*
X017513Y025168D01*
X017566Y025168D02*
X017406Y025168D01*
X017406Y025323D02*
X017620Y025537D01*
X017620Y025323D02*
X017406Y025537D01*
X016995Y025691D02*
X016781Y025905D01*
X017566Y025168D02*
X017620Y025115D01*
X017620Y025008D01*
X017726Y024800D02*
X017406Y024800D01*
X017406Y024587D02*
X017726Y024587D01*
X017620Y024693D01*
X017726Y024800D01*
X016995Y024378D02*
X016941Y024432D01*
X016888Y024432D01*
X016888Y024218D01*
X016941Y024218D02*
X016995Y024272D01*
X016995Y024378D01*
X016941Y024218D02*
X016834Y024218D01*
X016781Y024272D01*
X016781Y024378D01*
X016834Y024063D02*
X016888Y024010D01*
X016888Y023903D01*
X016941Y023850D01*
X016995Y023903D01*
X016995Y024063D01*
X016834Y024063D02*
X016781Y024010D01*
X016781Y023850D01*
X016781Y023695D02*
X016995Y023695D01*
X016995Y023482D02*
X016834Y023482D01*
X016781Y023535D01*
X016781Y023695D01*
X017101Y023327D02*
X017101Y023113D01*
X016781Y023113D01*
X016941Y023113D02*
X016941Y023220D01*
X017406Y023167D02*
X017406Y023327D01*
X017620Y023327D01*
X017566Y023482D02*
X017620Y023535D01*
X017620Y023695D01*
X017513Y023642D02*
X017513Y023535D01*
X017566Y023482D01*
X017406Y023482D02*
X017406Y023642D01*
X017459Y023695D01*
X017513Y023642D01*
X017513Y023850D02*
X017513Y024063D01*
X017566Y024063D01*
X017620Y024010D01*
X017620Y023903D01*
X017566Y023850D01*
X017459Y023850D01*
X017406Y023903D01*
X017406Y024010D01*
X017406Y023167D02*
X017459Y023113D01*
X017620Y023113D01*
X017726Y022958D02*
X017726Y022745D01*
X017406Y022745D01*
X017566Y022745D02*
X017566Y022852D01*
X017101Y022483D02*
X016995Y022590D01*
X016781Y022590D01*
X016941Y022590D02*
X016941Y022377D01*
X016995Y022377D02*
X016781Y022377D01*
X016834Y022222D02*
X016781Y022168D01*
X016781Y022062D01*
X016834Y022008D01*
X016941Y022008D02*
X016995Y022115D01*
X016995Y022168D01*
X016941Y022222D01*
X016834Y022222D01*
X016995Y022377D02*
X017101Y022483D01*
X017101Y022222D02*
X017101Y022008D01*
X016941Y022008D01*
X016781Y021854D02*
X016781Y021640D01*
X016781Y021747D02*
X017101Y021747D01*
X016995Y021640D01*
X017406Y021800D02*
X017726Y021800D01*
X017566Y021640D01*
X017566Y021854D01*
X017566Y022008D02*
X017566Y022222D01*
X017620Y022222D02*
X017406Y022222D01*
X017620Y022222D02*
X017726Y022115D01*
X017620Y022008D01*
X017406Y022008D01*
X009201Y033660D02*
X009201Y033874D01*
X009201Y033767D02*
X008881Y033767D01*
X008881Y034028D02*
X009201Y034028D01*
X009201Y034189D01*
X009148Y034242D01*
X009041Y034242D01*
X008988Y034189D01*
X008988Y034028D01*
X009095Y034397D02*
X009201Y034503D01*
X008881Y034503D01*
X008881Y034397D02*
X008881Y034610D01*
D12*
X008117Y003136D02*
X005366Y003136D01*
X005643Y002978D02*
X007839Y002978D01*
X007562Y002819D02*
X005920Y002819D01*
X006198Y002661D02*
X007284Y002661D01*
X007007Y002502D02*
X006475Y002502D01*
X006741Y002350D02*
X008491Y003350D01*
X008491Y005475D01*
X006741Y006350D01*
X004991Y005350D01*
X004991Y003350D01*
X006741Y002350D01*
X005088Y003295D02*
X008394Y003295D01*
X008491Y003453D02*
X004991Y003453D01*
X004991Y003612D02*
X008491Y003612D01*
X008491Y003770D02*
X004991Y003770D01*
X004991Y003929D02*
X008491Y003929D01*
X008491Y004087D02*
X004991Y004087D01*
X004991Y004246D02*
X008491Y004246D01*
X008491Y004404D02*
X004991Y004404D01*
X004991Y004563D02*
X008491Y004563D01*
X008491Y004721D02*
X004991Y004721D01*
X004991Y004880D02*
X008491Y004880D01*
X008491Y005038D02*
X004991Y005038D01*
X004991Y005197D02*
X008491Y005197D01*
X008491Y005355D02*
X005000Y005355D01*
X005277Y005514D02*
X008414Y005514D01*
X008097Y005672D02*
X005555Y005672D01*
X005832Y005831D02*
X007780Y005831D01*
X007463Y005989D02*
X006109Y005989D01*
X006387Y006148D02*
X007146Y006148D01*
X006829Y006306D02*
X006664Y006306D01*
X007116Y020475D02*
X007116Y021975D01*
X007866Y022725D01*
X009366Y022725D01*
X009366Y020475D01*
X007116Y020475D01*
X007116Y020571D02*
X009366Y020571D01*
X009366Y020730D02*
X007116Y020730D01*
X007116Y020888D02*
X009366Y020888D01*
X009366Y021047D02*
X007116Y021047D01*
X007116Y021205D02*
X009366Y021205D01*
X009366Y021364D02*
X007116Y021364D01*
X007116Y021522D02*
X009366Y021522D01*
X009366Y021681D02*
X007116Y021681D01*
X007116Y021839D02*
X009366Y021839D01*
X009366Y021998D02*
X007139Y021998D01*
X007297Y022156D02*
X009366Y022156D01*
X009366Y022315D02*
X007456Y022315D01*
X007614Y022473D02*
X009366Y022473D01*
X009366Y022632D02*
X007773Y022632D01*
X007866Y023225D02*
X007116Y023975D01*
X007116Y025475D01*
X009366Y025475D01*
X009366Y023225D01*
X007866Y023225D01*
X007826Y023266D02*
X009366Y023266D01*
X009366Y023424D02*
X007667Y023424D01*
X007509Y023583D02*
X009366Y023583D01*
X009366Y023741D02*
X007350Y023741D01*
X007192Y023900D02*
X009366Y023900D01*
X009366Y024058D02*
X007116Y024058D01*
X007116Y024217D02*
X009366Y024217D01*
X009366Y024375D02*
X007116Y024375D01*
X007116Y024534D02*
X009366Y024534D01*
X009366Y024692D02*
X007116Y024692D01*
X007116Y024851D02*
X009366Y024851D01*
X009366Y025009D02*
X007116Y025009D01*
X007116Y025168D02*
X009366Y025168D01*
X009366Y025326D02*
X007116Y025326D01*
X006741Y029350D02*
X008491Y030350D01*
X008491Y032475D01*
X006741Y033350D01*
X004991Y032350D01*
X004991Y030350D01*
X006741Y029350D01*
X006571Y029447D02*
X006911Y029447D01*
X007188Y029606D02*
X006294Y029606D01*
X006016Y029764D02*
X007466Y029764D01*
X007743Y029923D02*
X005739Y029923D01*
X005462Y030081D02*
X008020Y030081D01*
X008298Y030240D02*
X005184Y030240D01*
X004991Y030398D02*
X008491Y030398D01*
X008491Y030557D02*
X004991Y030557D01*
X004991Y030715D02*
X008491Y030715D01*
X008491Y030874D02*
X004991Y030874D01*
X004991Y031032D02*
X008491Y031032D01*
X008491Y031191D02*
X004991Y031191D01*
X004991Y031349D02*
X008491Y031349D01*
X008491Y031508D02*
X004991Y031508D01*
X004991Y031666D02*
X008491Y031666D01*
X008491Y031825D02*
X004991Y031825D01*
X004991Y031983D02*
X008491Y031983D01*
X008491Y032142D02*
X004991Y032142D01*
X004991Y032300D02*
X008491Y032300D01*
X008491Y032459D02*
X005181Y032459D01*
X005458Y032617D02*
X008207Y032617D01*
X007890Y032776D02*
X005736Y032776D01*
X006013Y032934D02*
X007573Y032934D01*
X007256Y033093D02*
X006291Y033093D01*
X006568Y033251D02*
X006939Y033251D01*
X065741Y032350D02*
X065741Y030350D01*
X067491Y029350D01*
X069241Y030350D01*
X069241Y032475D01*
X067491Y033350D01*
X065741Y032350D01*
X065741Y032300D02*
X069241Y032300D01*
X069241Y032142D02*
X065741Y032142D01*
X065741Y031983D02*
X069241Y031983D01*
X069241Y031825D02*
X065741Y031825D01*
X065741Y031666D02*
X069241Y031666D01*
X069241Y031508D02*
X065741Y031508D01*
X065741Y031349D02*
X069241Y031349D01*
X069241Y031191D02*
X065741Y031191D01*
X065741Y031032D02*
X069241Y031032D01*
X069241Y030874D02*
X065741Y030874D01*
X065741Y030715D02*
X069241Y030715D01*
X069241Y030557D02*
X065741Y030557D01*
X065741Y030398D02*
X069241Y030398D01*
X069048Y030240D02*
X065934Y030240D01*
X066212Y030081D02*
X068770Y030081D01*
X068493Y029923D02*
X066489Y029923D01*
X066766Y029764D02*
X068216Y029764D01*
X067938Y029606D02*
X067044Y029606D01*
X067321Y029447D02*
X067661Y029447D01*
X069241Y032459D02*
X065931Y032459D01*
X066208Y032617D02*
X068957Y032617D01*
X068640Y032776D02*
X066486Y032776D01*
X066763Y032934D02*
X068323Y032934D01*
X068006Y033093D02*
X067041Y033093D01*
X067318Y033251D02*
X067689Y033251D01*
D13*
X067501Y004350D03*
D14*
X067486Y016046D02*
X067786Y016046D01*
X067636Y016046D02*
X067786Y016196D01*
X067786Y016271D01*
X067711Y016475D02*
X067786Y016550D01*
X067786Y016700D01*
X067711Y016775D01*
X067636Y016775D01*
X067636Y016475D01*
X067561Y016475D02*
X067711Y016475D01*
X067561Y016475D02*
X067486Y016550D01*
X067486Y016700D01*
X067786Y016991D02*
X067486Y017141D01*
X067786Y017291D01*
X067861Y017506D02*
X067561Y017506D01*
X067861Y017807D01*
X067561Y017807D01*
X067486Y017732D01*
X067486Y017582D01*
X067561Y017506D01*
X067861Y017506D02*
X067936Y017582D01*
X067936Y017732D01*
X067861Y017807D01*
X067561Y018022D02*
X067561Y018097D01*
X067486Y018097D01*
X067486Y018022D01*
X067561Y018022D01*
X067486Y018280D02*
X067786Y018280D01*
X067786Y018505D01*
X067711Y018580D01*
X067486Y018580D01*
X067561Y018796D02*
X067711Y018796D01*
X067786Y018871D01*
X067786Y019021D01*
X067711Y019096D01*
X067636Y019096D01*
X067636Y018796D01*
X067561Y018796D02*
X067486Y018871D01*
X067486Y019021D01*
X067561Y019386D02*
X067486Y019461D01*
X067561Y019386D02*
X067861Y019386D01*
X067786Y019311D02*
X067786Y019461D01*
D15*
X008741Y014225D03*
D16*
X015665Y001351D02*
X016466Y001351D01*
X023165Y001351D02*
X023966Y001351D01*
X031540Y001351D02*
X032341Y001351D01*
X039040Y001351D02*
X039841Y001351D01*
X047415Y001351D02*
X048216Y001351D01*
X054915Y001351D02*
X055716Y001351D01*
X063290Y001351D02*
X064091Y001351D01*
X063566Y033825D02*
X063566Y034626D01*
X063966Y034226D02*
X063165Y034226D01*
X055591Y034226D02*
X054790Y034226D01*
X055191Y034626D02*
X055191Y033825D01*
X048091Y034226D02*
X047290Y034226D01*
X047691Y034626D02*
X047691Y033825D01*
X039716Y034226D02*
X038915Y034226D01*
X039316Y034626D02*
X039316Y033825D01*
X032216Y034226D02*
X031415Y034226D01*
X031816Y034626D02*
X031816Y033825D01*
X023841Y034226D02*
X023040Y034226D01*
X023441Y034626D02*
X023441Y033825D01*
X016341Y034226D02*
X015540Y034226D01*
X015941Y034626D02*
X015941Y033825D01*
D17*
X013893Y032122D03*
X021491Y032122D03*
X029090Y032122D03*
X037643Y032122D03*
X045241Y032122D03*
X052840Y032122D03*
X060438Y032122D03*
X060438Y003578D03*
X052840Y003578D03*
X045241Y003578D03*
X037643Y003578D03*
X029090Y003578D03*
X021491Y003578D03*
X013893Y003578D03*
D18*
X009093Y027600D03*
X006889Y027600D03*
D19*
X010724Y028716D03*
X024508Y028716D03*
X026599Y028716D03*
X040383Y028716D03*
X042474Y028716D03*
X056258Y028716D03*
X058341Y028716D03*
X064641Y028716D03*
X064641Y006984D03*
X058341Y006984D03*
X056258Y006984D03*
X042474Y006984D03*
X040383Y006984D03*
X026599Y006984D03*
X024508Y006984D03*
X010724Y006984D03*
D20*
X013854Y002366D03*
X021378Y002366D03*
X029729Y002366D03*
X037253Y002366D03*
X045604Y002366D03*
X053128Y002366D03*
X053128Y033334D03*
X045604Y033334D03*
X037253Y033334D03*
X029729Y033334D03*
X021378Y033334D03*
X013854Y033334D03*
D21*
X024508Y031952D03*
X026599Y031952D03*
X042474Y031952D03*
X058341Y031996D03*
X058341Y003704D03*
X042474Y003748D03*
X026599Y003748D03*
X024508Y003748D03*
D22*
X067491Y026498D03*
X067491Y028702D03*
D23*
X061491Y002232D03*
D24*
X061491Y033468D03*
D25*
X066507Y032824D03*
X068475Y032824D03*
X068475Y029876D03*
X066507Y029876D03*
X066507Y005824D03*
X068475Y005824D03*
X068475Y002876D03*
X066507Y002876D03*
X007725Y002876D03*
X005757Y002876D03*
X005757Y005824D03*
X007725Y005824D03*
X007725Y029876D03*
X005757Y029876D03*
X005757Y032824D03*
X007725Y032824D03*
D26*
X008241Y024392D03*
X008241Y021558D03*
D27*
X005879Y020318D03*
X006942Y022975D03*
X005879Y025632D03*
D28*
X005991Y017600D03*
X006991Y017600D03*
X006991Y016600D03*
X005991Y016600D03*
X005991Y015600D03*
X006991Y015600D03*
X006991Y014600D03*
X005991Y014600D03*
X005991Y013600D03*
X006991Y013600D03*
X006991Y012600D03*
X005991Y012600D03*
X005991Y011600D03*
X006991Y011600D03*
X006991Y010600D03*
X005991Y010600D03*
X005991Y009600D03*
X006991Y009600D03*
D29*
X008116Y010975D03*
X009491Y010975D03*
X009491Y011975D03*
X008116Y011975D03*
X008116Y012975D03*
X008116Y013975D03*
X009491Y013975D03*
X009491Y012975D03*
X009491Y014975D03*
X008116Y014975D03*
X008116Y015975D03*
X009491Y015975D03*
X009491Y016975D03*
X009491Y017975D03*
X008116Y017975D03*
X008116Y016975D03*
D30*
X006741Y004350D03*
X006741Y031350D03*
X067491Y031350D03*
D31*
X068616Y028725D03*
X066366Y026475D03*
X009116Y028850D03*
X005616Y026975D03*
M02*
