G75*
G70*
%OFA0B0*%
%FSLAX24Y24*%
%IPPOS*%
%LPD*%
%AMOC8*
5,1,8,0,0,1.08239X$1,22.5*
%
%ADD10C,0.0000*%
%ADD11C,0.0400*%
%ADD12C,0.0110*%
%ADD13C,0.0080*%
%ADD14C,0.0060*%
%ADD15R,0.4500X2.7500*%
%ADD16C,0.0140*%
%ADD17C,0.0160*%
%ADD18C,0.0100*%
%ADD19C,0.0050*%
D10*
X004741Y000600D02*
X004741Y035096D01*
X069521Y035096D01*
X069521Y027975D01*
X065991Y027975D01*
X065991Y027225D01*
X069521Y027225D01*
X069521Y000600D01*
X004741Y000600D01*
X010044Y006984D02*
X010046Y007036D01*
X010052Y007088D01*
X010062Y007139D01*
X010076Y007189D01*
X010093Y007238D01*
X010115Y007286D01*
X010139Y007331D01*
X010168Y007375D01*
X010199Y007417D01*
X010234Y007456D01*
X010272Y007492D01*
X010312Y007525D01*
X010354Y007555D01*
X010399Y007581D01*
X010446Y007605D01*
X010494Y007624D01*
X010544Y007640D01*
X010595Y007652D01*
X010646Y007660D01*
X010698Y007664D01*
X010750Y007664D01*
X010802Y007660D01*
X010853Y007652D01*
X010904Y007640D01*
X010954Y007624D01*
X011002Y007605D01*
X011049Y007581D01*
X011094Y007555D01*
X011136Y007525D01*
X011176Y007492D01*
X011214Y007456D01*
X011249Y007417D01*
X011280Y007375D01*
X011309Y007331D01*
X011333Y007286D01*
X011355Y007238D01*
X011372Y007189D01*
X011386Y007139D01*
X011396Y007088D01*
X011402Y007036D01*
X011404Y006984D01*
X011402Y006932D01*
X011396Y006880D01*
X011386Y006829D01*
X011372Y006779D01*
X011355Y006730D01*
X011333Y006682D01*
X011309Y006637D01*
X011280Y006593D01*
X011249Y006551D01*
X011214Y006512D01*
X011176Y006476D01*
X011136Y006443D01*
X011094Y006413D01*
X011049Y006387D01*
X011002Y006363D01*
X010954Y006344D01*
X010904Y006328D01*
X010853Y006316D01*
X010802Y006308D01*
X010750Y006304D01*
X010698Y006304D01*
X010646Y006308D01*
X010595Y006316D01*
X010544Y006328D01*
X010494Y006344D01*
X010446Y006363D01*
X010399Y006387D01*
X010354Y006413D01*
X010312Y006443D01*
X010272Y006476D01*
X010234Y006512D01*
X010199Y006551D01*
X010168Y006593D01*
X010139Y006637D01*
X010115Y006682D01*
X010093Y006730D01*
X010076Y006779D01*
X010062Y006829D01*
X010052Y006880D01*
X010046Y006932D01*
X010044Y006984D01*
X023828Y006984D02*
X023830Y007036D01*
X023836Y007088D01*
X023846Y007139D01*
X023860Y007189D01*
X023877Y007238D01*
X023899Y007286D01*
X023923Y007331D01*
X023952Y007375D01*
X023983Y007417D01*
X024018Y007456D01*
X024056Y007492D01*
X024096Y007525D01*
X024138Y007555D01*
X024183Y007581D01*
X024230Y007605D01*
X024278Y007624D01*
X024328Y007640D01*
X024379Y007652D01*
X024430Y007660D01*
X024482Y007664D01*
X024534Y007664D01*
X024586Y007660D01*
X024637Y007652D01*
X024688Y007640D01*
X024738Y007624D01*
X024786Y007605D01*
X024833Y007581D01*
X024878Y007555D01*
X024920Y007525D01*
X024960Y007492D01*
X024998Y007456D01*
X025033Y007417D01*
X025064Y007375D01*
X025093Y007331D01*
X025117Y007286D01*
X025139Y007238D01*
X025156Y007189D01*
X025170Y007139D01*
X025180Y007088D01*
X025186Y007036D01*
X025188Y006984D01*
X025186Y006932D01*
X025180Y006880D01*
X025170Y006829D01*
X025156Y006779D01*
X025139Y006730D01*
X025117Y006682D01*
X025093Y006637D01*
X025064Y006593D01*
X025033Y006551D01*
X024998Y006512D01*
X024960Y006476D01*
X024920Y006443D01*
X024878Y006413D01*
X024833Y006387D01*
X024786Y006363D01*
X024738Y006344D01*
X024688Y006328D01*
X024637Y006316D01*
X024586Y006308D01*
X024534Y006304D01*
X024482Y006304D01*
X024430Y006308D01*
X024379Y006316D01*
X024328Y006328D01*
X024278Y006344D01*
X024230Y006363D01*
X024183Y006387D01*
X024138Y006413D01*
X024096Y006443D01*
X024056Y006476D01*
X024018Y006512D01*
X023983Y006551D01*
X023952Y006593D01*
X023923Y006637D01*
X023899Y006682D01*
X023877Y006730D01*
X023860Y006779D01*
X023846Y006829D01*
X023836Y006880D01*
X023830Y006932D01*
X023828Y006984D01*
X025919Y006984D02*
X025921Y007036D01*
X025927Y007088D01*
X025937Y007139D01*
X025951Y007189D01*
X025968Y007238D01*
X025990Y007286D01*
X026014Y007331D01*
X026043Y007375D01*
X026074Y007417D01*
X026109Y007456D01*
X026147Y007492D01*
X026187Y007525D01*
X026229Y007555D01*
X026274Y007581D01*
X026321Y007605D01*
X026369Y007624D01*
X026419Y007640D01*
X026470Y007652D01*
X026521Y007660D01*
X026573Y007664D01*
X026625Y007664D01*
X026677Y007660D01*
X026728Y007652D01*
X026779Y007640D01*
X026829Y007624D01*
X026877Y007605D01*
X026924Y007581D01*
X026969Y007555D01*
X027011Y007525D01*
X027051Y007492D01*
X027089Y007456D01*
X027124Y007417D01*
X027155Y007375D01*
X027184Y007331D01*
X027208Y007286D01*
X027230Y007238D01*
X027247Y007189D01*
X027261Y007139D01*
X027271Y007088D01*
X027277Y007036D01*
X027279Y006984D01*
X027277Y006932D01*
X027271Y006880D01*
X027261Y006829D01*
X027247Y006779D01*
X027230Y006730D01*
X027208Y006682D01*
X027184Y006637D01*
X027155Y006593D01*
X027124Y006551D01*
X027089Y006512D01*
X027051Y006476D01*
X027011Y006443D01*
X026969Y006413D01*
X026924Y006387D01*
X026877Y006363D01*
X026829Y006344D01*
X026779Y006328D01*
X026728Y006316D01*
X026677Y006308D01*
X026625Y006304D01*
X026573Y006304D01*
X026521Y006308D01*
X026470Y006316D01*
X026419Y006328D01*
X026369Y006344D01*
X026321Y006363D01*
X026274Y006387D01*
X026229Y006413D01*
X026187Y006443D01*
X026147Y006476D01*
X026109Y006512D01*
X026074Y006551D01*
X026043Y006593D01*
X026014Y006637D01*
X025990Y006682D01*
X025968Y006730D01*
X025951Y006779D01*
X025937Y006829D01*
X025927Y006880D01*
X025921Y006932D01*
X025919Y006984D01*
X026129Y003748D02*
X026131Y003791D01*
X026137Y003833D01*
X026146Y003875D01*
X026160Y003915D01*
X026177Y003955D01*
X026197Y003992D01*
X026221Y004028D01*
X026248Y004061D01*
X026278Y004091D01*
X026311Y004119D01*
X026346Y004144D01*
X026383Y004165D01*
X026422Y004183D01*
X026462Y004198D01*
X026503Y004208D01*
X026546Y004215D01*
X026588Y004218D01*
X026631Y004217D01*
X026674Y004212D01*
X026715Y004203D01*
X026756Y004191D01*
X026796Y004175D01*
X026834Y004155D01*
X026870Y004132D01*
X026904Y004106D01*
X026935Y004077D01*
X026964Y004045D01*
X026989Y004010D01*
X027011Y003974D01*
X027030Y003935D01*
X027045Y003895D01*
X027057Y003854D01*
X027065Y003812D01*
X027069Y003769D01*
X027069Y003727D01*
X027065Y003684D01*
X027057Y003642D01*
X027045Y003601D01*
X027030Y003561D01*
X027011Y003522D01*
X026989Y003486D01*
X026964Y003451D01*
X026935Y003419D01*
X026904Y003390D01*
X026870Y003364D01*
X026834Y003341D01*
X026796Y003321D01*
X026756Y003305D01*
X026715Y003293D01*
X026674Y003284D01*
X026631Y003279D01*
X026588Y003278D01*
X026546Y003281D01*
X026503Y003288D01*
X026462Y003298D01*
X026422Y003313D01*
X026383Y003331D01*
X026346Y003352D01*
X026311Y003377D01*
X026278Y003405D01*
X026248Y003435D01*
X026221Y003468D01*
X026197Y003504D01*
X026177Y003541D01*
X026160Y003581D01*
X026146Y003621D01*
X026137Y003663D01*
X026131Y003705D01*
X026129Y003748D01*
X024038Y003748D02*
X024040Y003791D01*
X024046Y003833D01*
X024055Y003875D01*
X024069Y003915D01*
X024086Y003955D01*
X024106Y003992D01*
X024130Y004028D01*
X024157Y004061D01*
X024187Y004091D01*
X024220Y004119D01*
X024255Y004144D01*
X024292Y004165D01*
X024331Y004183D01*
X024371Y004198D01*
X024412Y004208D01*
X024455Y004215D01*
X024497Y004218D01*
X024540Y004217D01*
X024583Y004212D01*
X024624Y004203D01*
X024665Y004191D01*
X024705Y004175D01*
X024743Y004155D01*
X024779Y004132D01*
X024813Y004106D01*
X024844Y004077D01*
X024873Y004045D01*
X024898Y004010D01*
X024920Y003974D01*
X024939Y003935D01*
X024954Y003895D01*
X024966Y003854D01*
X024974Y003812D01*
X024978Y003769D01*
X024978Y003727D01*
X024974Y003684D01*
X024966Y003642D01*
X024954Y003601D01*
X024939Y003561D01*
X024920Y003522D01*
X024898Y003486D01*
X024873Y003451D01*
X024844Y003419D01*
X024813Y003390D01*
X024779Y003364D01*
X024743Y003341D01*
X024705Y003321D01*
X024665Y003305D01*
X024624Y003293D01*
X024583Y003284D01*
X024540Y003279D01*
X024497Y003278D01*
X024455Y003281D01*
X024412Y003288D01*
X024371Y003298D01*
X024331Y003313D01*
X024292Y003331D01*
X024255Y003352D01*
X024220Y003377D01*
X024187Y003405D01*
X024157Y003435D01*
X024130Y003468D01*
X024106Y003504D01*
X024086Y003541D01*
X024069Y003581D01*
X024055Y003621D01*
X024046Y003663D01*
X024040Y003705D01*
X024038Y003748D01*
X039703Y006984D02*
X039705Y007036D01*
X039711Y007088D01*
X039721Y007139D01*
X039735Y007189D01*
X039752Y007238D01*
X039774Y007286D01*
X039798Y007331D01*
X039827Y007375D01*
X039858Y007417D01*
X039893Y007456D01*
X039931Y007492D01*
X039971Y007525D01*
X040013Y007555D01*
X040058Y007581D01*
X040105Y007605D01*
X040153Y007624D01*
X040203Y007640D01*
X040254Y007652D01*
X040305Y007660D01*
X040357Y007664D01*
X040409Y007664D01*
X040461Y007660D01*
X040512Y007652D01*
X040563Y007640D01*
X040613Y007624D01*
X040661Y007605D01*
X040708Y007581D01*
X040753Y007555D01*
X040795Y007525D01*
X040835Y007492D01*
X040873Y007456D01*
X040908Y007417D01*
X040939Y007375D01*
X040968Y007331D01*
X040992Y007286D01*
X041014Y007238D01*
X041031Y007189D01*
X041045Y007139D01*
X041055Y007088D01*
X041061Y007036D01*
X041063Y006984D01*
X041061Y006932D01*
X041055Y006880D01*
X041045Y006829D01*
X041031Y006779D01*
X041014Y006730D01*
X040992Y006682D01*
X040968Y006637D01*
X040939Y006593D01*
X040908Y006551D01*
X040873Y006512D01*
X040835Y006476D01*
X040795Y006443D01*
X040753Y006413D01*
X040708Y006387D01*
X040661Y006363D01*
X040613Y006344D01*
X040563Y006328D01*
X040512Y006316D01*
X040461Y006308D01*
X040409Y006304D01*
X040357Y006304D01*
X040305Y006308D01*
X040254Y006316D01*
X040203Y006328D01*
X040153Y006344D01*
X040105Y006363D01*
X040058Y006387D01*
X040013Y006413D01*
X039971Y006443D01*
X039931Y006476D01*
X039893Y006512D01*
X039858Y006551D01*
X039827Y006593D01*
X039798Y006637D01*
X039774Y006682D01*
X039752Y006730D01*
X039735Y006779D01*
X039721Y006829D01*
X039711Y006880D01*
X039705Y006932D01*
X039703Y006984D01*
X041794Y006984D02*
X041796Y007036D01*
X041802Y007088D01*
X041812Y007139D01*
X041826Y007189D01*
X041843Y007238D01*
X041865Y007286D01*
X041889Y007331D01*
X041918Y007375D01*
X041949Y007417D01*
X041984Y007456D01*
X042022Y007492D01*
X042062Y007525D01*
X042104Y007555D01*
X042149Y007581D01*
X042196Y007605D01*
X042244Y007624D01*
X042294Y007640D01*
X042345Y007652D01*
X042396Y007660D01*
X042448Y007664D01*
X042500Y007664D01*
X042552Y007660D01*
X042603Y007652D01*
X042654Y007640D01*
X042704Y007624D01*
X042752Y007605D01*
X042799Y007581D01*
X042844Y007555D01*
X042886Y007525D01*
X042926Y007492D01*
X042964Y007456D01*
X042999Y007417D01*
X043030Y007375D01*
X043059Y007331D01*
X043083Y007286D01*
X043105Y007238D01*
X043122Y007189D01*
X043136Y007139D01*
X043146Y007088D01*
X043152Y007036D01*
X043154Y006984D01*
X043152Y006932D01*
X043146Y006880D01*
X043136Y006829D01*
X043122Y006779D01*
X043105Y006730D01*
X043083Y006682D01*
X043059Y006637D01*
X043030Y006593D01*
X042999Y006551D01*
X042964Y006512D01*
X042926Y006476D01*
X042886Y006443D01*
X042844Y006413D01*
X042799Y006387D01*
X042752Y006363D01*
X042704Y006344D01*
X042654Y006328D01*
X042603Y006316D01*
X042552Y006308D01*
X042500Y006304D01*
X042448Y006304D01*
X042396Y006308D01*
X042345Y006316D01*
X042294Y006328D01*
X042244Y006344D01*
X042196Y006363D01*
X042149Y006387D01*
X042104Y006413D01*
X042062Y006443D01*
X042022Y006476D01*
X041984Y006512D01*
X041949Y006551D01*
X041918Y006593D01*
X041889Y006637D01*
X041865Y006682D01*
X041843Y006730D01*
X041826Y006779D01*
X041812Y006829D01*
X041802Y006880D01*
X041796Y006932D01*
X041794Y006984D01*
X042004Y003748D02*
X042006Y003791D01*
X042012Y003833D01*
X042021Y003875D01*
X042035Y003915D01*
X042052Y003955D01*
X042072Y003992D01*
X042096Y004028D01*
X042123Y004061D01*
X042153Y004091D01*
X042186Y004119D01*
X042221Y004144D01*
X042258Y004165D01*
X042297Y004183D01*
X042337Y004198D01*
X042378Y004208D01*
X042421Y004215D01*
X042463Y004218D01*
X042506Y004217D01*
X042549Y004212D01*
X042590Y004203D01*
X042631Y004191D01*
X042671Y004175D01*
X042709Y004155D01*
X042745Y004132D01*
X042779Y004106D01*
X042810Y004077D01*
X042839Y004045D01*
X042864Y004010D01*
X042886Y003974D01*
X042905Y003935D01*
X042920Y003895D01*
X042932Y003854D01*
X042940Y003812D01*
X042944Y003769D01*
X042944Y003727D01*
X042940Y003684D01*
X042932Y003642D01*
X042920Y003601D01*
X042905Y003561D01*
X042886Y003522D01*
X042864Y003486D01*
X042839Y003451D01*
X042810Y003419D01*
X042779Y003390D01*
X042745Y003364D01*
X042709Y003341D01*
X042671Y003321D01*
X042631Y003305D01*
X042590Y003293D01*
X042549Y003284D01*
X042506Y003279D01*
X042463Y003278D01*
X042421Y003281D01*
X042378Y003288D01*
X042337Y003298D01*
X042297Y003313D01*
X042258Y003331D01*
X042221Y003352D01*
X042186Y003377D01*
X042153Y003405D01*
X042123Y003435D01*
X042096Y003468D01*
X042072Y003504D01*
X042052Y003541D01*
X042035Y003581D01*
X042021Y003621D01*
X042012Y003663D01*
X042006Y003705D01*
X042004Y003748D01*
X055578Y006984D02*
X055580Y007036D01*
X055586Y007088D01*
X055596Y007139D01*
X055610Y007189D01*
X055627Y007238D01*
X055649Y007286D01*
X055673Y007331D01*
X055702Y007375D01*
X055733Y007417D01*
X055768Y007456D01*
X055806Y007492D01*
X055846Y007525D01*
X055888Y007555D01*
X055933Y007581D01*
X055980Y007605D01*
X056028Y007624D01*
X056078Y007640D01*
X056129Y007652D01*
X056180Y007660D01*
X056232Y007664D01*
X056284Y007664D01*
X056336Y007660D01*
X056387Y007652D01*
X056438Y007640D01*
X056488Y007624D01*
X056536Y007605D01*
X056583Y007581D01*
X056628Y007555D01*
X056670Y007525D01*
X056710Y007492D01*
X056748Y007456D01*
X056783Y007417D01*
X056814Y007375D01*
X056843Y007331D01*
X056867Y007286D01*
X056889Y007238D01*
X056906Y007189D01*
X056920Y007139D01*
X056930Y007088D01*
X056936Y007036D01*
X056938Y006984D01*
X056936Y006932D01*
X056930Y006880D01*
X056920Y006829D01*
X056906Y006779D01*
X056889Y006730D01*
X056867Y006682D01*
X056843Y006637D01*
X056814Y006593D01*
X056783Y006551D01*
X056748Y006512D01*
X056710Y006476D01*
X056670Y006443D01*
X056628Y006413D01*
X056583Y006387D01*
X056536Y006363D01*
X056488Y006344D01*
X056438Y006328D01*
X056387Y006316D01*
X056336Y006308D01*
X056284Y006304D01*
X056232Y006304D01*
X056180Y006308D01*
X056129Y006316D01*
X056078Y006328D01*
X056028Y006344D01*
X055980Y006363D01*
X055933Y006387D01*
X055888Y006413D01*
X055846Y006443D01*
X055806Y006476D01*
X055768Y006512D01*
X055733Y006551D01*
X055702Y006593D01*
X055673Y006637D01*
X055649Y006682D01*
X055627Y006730D01*
X055610Y006779D01*
X055596Y006829D01*
X055586Y006880D01*
X055580Y006932D01*
X055578Y006984D01*
X057661Y006984D02*
X057663Y007036D01*
X057669Y007088D01*
X057679Y007139D01*
X057693Y007189D01*
X057710Y007238D01*
X057732Y007286D01*
X057756Y007331D01*
X057785Y007375D01*
X057816Y007417D01*
X057851Y007456D01*
X057889Y007492D01*
X057929Y007525D01*
X057971Y007555D01*
X058016Y007581D01*
X058063Y007605D01*
X058111Y007624D01*
X058161Y007640D01*
X058212Y007652D01*
X058263Y007660D01*
X058315Y007664D01*
X058367Y007664D01*
X058419Y007660D01*
X058470Y007652D01*
X058521Y007640D01*
X058571Y007624D01*
X058619Y007605D01*
X058666Y007581D01*
X058711Y007555D01*
X058753Y007525D01*
X058793Y007492D01*
X058831Y007456D01*
X058866Y007417D01*
X058897Y007375D01*
X058926Y007331D01*
X058950Y007286D01*
X058972Y007238D01*
X058989Y007189D01*
X059003Y007139D01*
X059013Y007088D01*
X059019Y007036D01*
X059021Y006984D01*
X059019Y006932D01*
X059013Y006880D01*
X059003Y006829D01*
X058989Y006779D01*
X058972Y006730D01*
X058950Y006682D01*
X058926Y006637D01*
X058897Y006593D01*
X058866Y006551D01*
X058831Y006512D01*
X058793Y006476D01*
X058753Y006443D01*
X058711Y006413D01*
X058666Y006387D01*
X058619Y006363D01*
X058571Y006344D01*
X058521Y006328D01*
X058470Y006316D01*
X058419Y006308D01*
X058367Y006304D01*
X058315Y006304D01*
X058263Y006308D01*
X058212Y006316D01*
X058161Y006328D01*
X058111Y006344D01*
X058063Y006363D01*
X058016Y006387D01*
X057971Y006413D01*
X057929Y006443D01*
X057889Y006476D01*
X057851Y006512D01*
X057816Y006551D01*
X057785Y006593D01*
X057756Y006637D01*
X057732Y006682D01*
X057710Y006730D01*
X057693Y006779D01*
X057679Y006829D01*
X057669Y006880D01*
X057663Y006932D01*
X057661Y006984D01*
X057871Y003704D02*
X057873Y003747D01*
X057879Y003789D01*
X057888Y003831D01*
X057902Y003871D01*
X057919Y003911D01*
X057939Y003948D01*
X057963Y003984D01*
X057990Y004017D01*
X058020Y004047D01*
X058053Y004075D01*
X058088Y004100D01*
X058125Y004121D01*
X058164Y004139D01*
X058204Y004154D01*
X058245Y004164D01*
X058288Y004171D01*
X058330Y004174D01*
X058373Y004173D01*
X058416Y004168D01*
X058457Y004159D01*
X058498Y004147D01*
X058538Y004131D01*
X058576Y004111D01*
X058612Y004088D01*
X058646Y004062D01*
X058677Y004033D01*
X058706Y004001D01*
X058731Y003966D01*
X058753Y003930D01*
X058772Y003891D01*
X058787Y003851D01*
X058799Y003810D01*
X058807Y003768D01*
X058811Y003725D01*
X058811Y003683D01*
X058807Y003640D01*
X058799Y003598D01*
X058787Y003557D01*
X058772Y003517D01*
X058753Y003478D01*
X058731Y003442D01*
X058706Y003407D01*
X058677Y003375D01*
X058646Y003346D01*
X058612Y003320D01*
X058576Y003297D01*
X058538Y003277D01*
X058498Y003261D01*
X058457Y003249D01*
X058416Y003240D01*
X058373Y003235D01*
X058330Y003234D01*
X058288Y003237D01*
X058245Y003244D01*
X058204Y003254D01*
X058164Y003269D01*
X058125Y003287D01*
X058088Y003308D01*
X058053Y003333D01*
X058020Y003361D01*
X057990Y003391D01*
X057963Y003424D01*
X057939Y003460D01*
X057919Y003497D01*
X057902Y003537D01*
X057888Y003577D01*
X057879Y003619D01*
X057873Y003661D01*
X057871Y003704D01*
X063961Y006984D02*
X063963Y007036D01*
X063969Y007088D01*
X063979Y007139D01*
X063993Y007189D01*
X064010Y007238D01*
X064032Y007286D01*
X064056Y007331D01*
X064085Y007375D01*
X064116Y007417D01*
X064151Y007456D01*
X064189Y007492D01*
X064229Y007525D01*
X064271Y007555D01*
X064316Y007581D01*
X064363Y007605D01*
X064411Y007624D01*
X064461Y007640D01*
X064512Y007652D01*
X064563Y007660D01*
X064615Y007664D01*
X064667Y007664D01*
X064719Y007660D01*
X064770Y007652D01*
X064821Y007640D01*
X064871Y007624D01*
X064919Y007605D01*
X064966Y007581D01*
X065011Y007555D01*
X065053Y007525D01*
X065093Y007492D01*
X065131Y007456D01*
X065166Y007417D01*
X065197Y007375D01*
X065226Y007331D01*
X065250Y007286D01*
X065272Y007238D01*
X065289Y007189D01*
X065303Y007139D01*
X065313Y007088D01*
X065319Y007036D01*
X065321Y006984D01*
X065319Y006932D01*
X065313Y006880D01*
X065303Y006829D01*
X065289Y006779D01*
X065272Y006730D01*
X065250Y006682D01*
X065226Y006637D01*
X065197Y006593D01*
X065166Y006551D01*
X065131Y006512D01*
X065093Y006476D01*
X065053Y006443D01*
X065011Y006413D01*
X064966Y006387D01*
X064919Y006363D01*
X064871Y006344D01*
X064821Y006328D01*
X064770Y006316D01*
X064719Y006308D01*
X064667Y006304D01*
X064615Y006304D01*
X064563Y006308D01*
X064512Y006316D01*
X064461Y006328D01*
X064411Y006344D01*
X064363Y006363D01*
X064316Y006387D01*
X064271Y006413D01*
X064229Y006443D01*
X064189Y006476D01*
X064151Y006512D01*
X064116Y006551D01*
X064085Y006593D01*
X064056Y006637D01*
X064032Y006682D01*
X064010Y006730D01*
X063993Y006779D01*
X063979Y006829D01*
X063969Y006880D01*
X063963Y006932D01*
X063961Y006984D01*
X066655Y004350D02*
X066657Y004408D01*
X066663Y004465D01*
X066673Y004522D01*
X066686Y004578D01*
X066704Y004633D01*
X066725Y004687D01*
X066750Y004739D01*
X066778Y004790D01*
X066810Y004838D01*
X066845Y004884D01*
X066883Y004927D01*
X066924Y004968D01*
X066967Y005006D01*
X067013Y005041D01*
X067061Y005073D01*
X067112Y005101D01*
X067164Y005126D01*
X067218Y005147D01*
X067273Y005165D01*
X067329Y005178D01*
X067386Y005188D01*
X067443Y005194D01*
X067501Y005196D01*
X067559Y005194D01*
X067616Y005188D01*
X067673Y005178D01*
X067729Y005165D01*
X067784Y005147D01*
X067838Y005126D01*
X067890Y005101D01*
X067941Y005073D01*
X067989Y005041D01*
X068035Y005006D01*
X068078Y004968D01*
X068119Y004927D01*
X068157Y004884D01*
X068192Y004838D01*
X068224Y004790D01*
X068252Y004739D01*
X068277Y004687D01*
X068298Y004633D01*
X068316Y004578D01*
X068329Y004522D01*
X068339Y004465D01*
X068345Y004408D01*
X068347Y004350D01*
X068345Y004292D01*
X068339Y004235D01*
X068329Y004178D01*
X068316Y004122D01*
X068298Y004067D01*
X068277Y004013D01*
X068252Y003961D01*
X068224Y003910D01*
X068192Y003862D01*
X068157Y003816D01*
X068119Y003773D01*
X068078Y003732D01*
X068035Y003694D01*
X067989Y003659D01*
X067941Y003627D01*
X067890Y003599D01*
X067838Y003574D01*
X067784Y003553D01*
X067729Y003535D01*
X067673Y003522D01*
X067616Y003512D01*
X067559Y003506D01*
X067501Y003504D01*
X067443Y003506D01*
X067386Y003512D01*
X067329Y003522D01*
X067273Y003535D01*
X067218Y003553D01*
X067164Y003574D01*
X067112Y003599D01*
X067061Y003627D01*
X067013Y003659D01*
X066967Y003694D01*
X066924Y003732D01*
X066883Y003773D01*
X066845Y003816D01*
X066810Y003862D01*
X066778Y003910D01*
X066750Y003961D01*
X066725Y004013D01*
X066704Y004067D01*
X066686Y004122D01*
X066673Y004178D01*
X066663Y004235D01*
X066657Y004292D01*
X066655Y004350D01*
X063961Y028716D02*
X063963Y028768D01*
X063969Y028820D01*
X063979Y028871D01*
X063993Y028921D01*
X064010Y028970D01*
X064032Y029018D01*
X064056Y029063D01*
X064085Y029107D01*
X064116Y029149D01*
X064151Y029188D01*
X064189Y029224D01*
X064229Y029257D01*
X064271Y029287D01*
X064316Y029313D01*
X064363Y029337D01*
X064411Y029356D01*
X064461Y029372D01*
X064512Y029384D01*
X064563Y029392D01*
X064615Y029396D01*
X064667Y029396D01*
X064719Y029392D01*
X064770Y029384D01*
X064821Y029372D01*
X064871Y029356D01*
X064919Y029337D01*
X064966Y029313D01*
X065011Y029287D01*
X065053Y029257D01*
X065093Y029224D01*
X065131Y029188D01*
X065166Y029149D01*
X065197Y029107D01*
X065226Y029063D01*
X065250Y029018D01*
X065272Y028970D01*
X065289Y028921D01*
X065303Y028871D01*
X065313Y028820D01*
X065319Y028768D01*
X065321Y028716D01*
X065319Y028664D01*
X065313Y028612D01*
X065303Y028561D01*
X065289Y028511D01*
X065272Y028462D01*
X065250Y028414D01*
X065226Y028369D01*
X065197Y028325D01*
X065166Y028283D01*
X065131Y028244D01*
X065093Y028208D01*
X065053Y028175D01*
X065011Y028145D01*
X064966Y028119D01*
X064919Y028095D01*
X064871Y028076D01*
X064821Y028060D01*
X064770Y028048D01*
X064719Y028040D01*
X064667Y028036D01*
X064615Y028036D01*
X064563Y028040D01*
X064512Y028048D01*
X064461Y028060D01*
X064411Y028076D01*
X064363Y028095D01*
X064316Y028119D01*
X064271Y028145D01*
X064229Y028175D01*
X064189Y028208D01*
X064151Y028244D01*
X064116Y028283D01*
X064085Y028325D01*
X064056Y028369D01*
X064032Y028414D01*
X064010Y028462D01*
X063993Y028511D01*
X063979Y028561D01*
X063969Y028612D01*
X063963Y028664D01*
X063961Y028716D01*
X057661Y028716D02*
X057663Y028768D01*
X057669Y028820D01*
X057679Y028871D01*
X057693Y028921D01*
X057710Y028970D01*
X057732Y029018D01*
X057756Y029063D01*
X057785Y029107D01*
X057816Y029149D01*
X057851Y029188D01*
X057889Y029224D01*
X057929Y029257D01*
X057971Y029287D01*
X058016Y029313D01*
X058063Y029337D01*
X058111Y029356D01*
X058161Y029372D01*
X058212Y029384D01*
X058263Y029392D01*
X058315Y029396D01*
X058367Y029396D01*
X058419Y029392D01*
X058470Y029384D01*
X058521Y029372D01*
X058571Y029356D01*
X058619Y029337D01*
X058666Y029313D01*
X058711Y029287D01*
X058753Y029257D01*
X058793Y029224D01*
X058831Y029188D01*
X058866Y029149D01*
X058897Y029107D01*
X058926Y029063D01*
X058950Y029018D01*
X058972Y028970D01*
X058989Y028921D01*
X059003Y028871D01*
X059013Y028820D01*
X059019Y028768D01*
X059021Y028716D01*
X059019Y028664D01*
X059013Y028612D01*
X059003Y028561D01*
X058989Y028511D01*
X058972Y028462D01*
X058950Y028414D01*
X058926Y028369D01*
X058897Y028325D01*
X058866Y028283D01*
X058831Y028244D01*
X058793Y028208D01*
X058753Y028175D01*
X058711Y028145D01*
X058666Y028119D01*
X058619Y028095D01*
X058571Y028076D01*
X058521Y028060D01*
X058470Y028048D01*
X058419Y028040D01*
X058367Y028036D01*
X058315Y028036D01*
X058263Y028040D01*
X058212Y028048D01*
X058161Y028060D01*
X058111Y028076D01*
X058063Y028095D01*
X058016Y028119D01*
X057971Y028145D01*
X057929Y028175D01*
X057889Y028208D01*
X057851Y028244D01*
X057816Y028283D01*
X057785Y028325D01*
X057756Y028369D01*
X057732Y028414D01*
X057710Y028462D01*
X057693Y028511D01*
X057679Y028561D01*
X057669Y028612D01*
X057663Y028664D01*
X057661Y028716D01*
X055578Y028716D02*
X055580Y028768D01*
X055586Y028820D01*
X055596Y028871D01*
X055610Y028921D01*
X055627Y028970D01*
X055649Y029018D01*
X055673Y029063D01*
X055702Y029107D01*
X055733Y029149D01*
X055768Y029188D01*
X055806Y029224D01*
X055846Y029257D01*
X055888Y029287D01*
X055933Y029313D01*
X055980Y029337D01*
X056028Y029356D01*
X056078Y029372D01*
X056129Y029384D01*
X056180Y029392D01*
X056232Y029396D01*
X056284Y029396D01*
X056336Y029392D01*
X056387Y029384D01*
X056438Y029372D01*
X056488Y029356D01*
X056536Y029337D01*
X056583Y029313D01*
X056628Y029287D01*
X056670Y029257D01*
X056710Y029224D01*
X056748Y029188D01*
X056783Y029149D01*
X056814Y029107D01*
X056843Y029063D01*
X056867Y029018D01*
X056889Y028970D01*
X056906Y028921D01*
X056920Y028871D01*
X056930Y028820D01*
X056936Y028768D01*
X056938Y028716D01*
X056936Y028664D01*
X056930Y028612D01*
X056920Y028561D01*
X056906Y028511D01*
X056889Y028462D01*
X056867Y028414D01*
X056843Y028369D01*
X056814Y028325D01*
X056783Y028283D01*
X056748Y028244D01*
X056710Y028208D01*
X056670Y028175D01*
X056628Y028145D01*
X056583Y028119D01*
X056536Y028095D01*
X056488Y028076D01*
X056438Y028060D01*
X056387Y028048D01*
X056336Y028040D01*
X056284Y028036D01*
X056232Y028036D01*
X056180Y028040D01*
X056129Y028048D01*
X056078Y028060D01*
X056028Y028076D01*
X055980Y028095D01*
X055933Y028119D01*
X055888Y028145D01*
X055846Y028175D01*
X055806Y028208D01*
X055768Y028244D01*
X055733Y028283D01*
X055702Y028325D01*
X055673Y028369D01*
X055649Y028414D01*
X055627Y028462D01*
X055610Y028511D01*
X055596Y028561D01*
X055586Y028612D01*
X055580Y028664D01*
X055578Y028716D01*
X057871Y031996D02*
X057873Y032039D01*
X057879Y032081D01*
X057888Y032123D01*
X057902Y032163D01*
X057919Y032203D01*
X057939Y032240D01*
X057963Y032276D01*
X057990Y032309D01*
X058020Y032339D01*
X058053Y032367D01*
X058088Y032392D01*
X058125Y032413D01*
X058164Y032431D01*
X058204Y032446D01*
X058245Y032456D01*
X058288Y032463D01*
X058330Y032466D01*
X058373Y032465D01*
X058416Y032460D01*
X058457Y032451D01*
X058498Y032439D01*
X058538Y032423D01*
X058576Y032403D01*
X058612Y032380D01*
X058646Y032354D01*
X058677Y032325D01*
X058706Y032293D01*
X058731Y032258D01*
X058753Y032222D01*
X058772Y032183D01*
X058787Y032143D01*
X058799Y032102D01*
X058807Y032060D01*
X058811Y032017D01*
X058811Y031975D01*
X058807Y031932D01*
X058799Y031890D01*
X058787Y031849D01*
X058772Y031809D01*
X058753Y031770D01*
X058731Y031734D01*
X058706Y031699D01*
X058677Y031667D01*
X058646Y031638D01*
X058612Y031612D01*
X058576Y031589D01*
X058538Y031569D01*
X058498Y031553D01*
X058457Y031541D01*
X058416Y031532D01*
X058373Y031527D01*
X058330Y031526D01*
X058288Y031529D01*
X058245Y031536D01*
X058204Y031546D01*
X058164Y031561D01*
X058125Y031579D01*
X058088Y031600D01*
X058053Y031625D01*
X058020Y031653D01*
X057990Y031683D01*
X057963Y031716D01*
X057939Y031752D01*
X057919Y031789D01*
X057902Y031829D01*
X057888Y031869D01*
X057879Y031911D01*
X057873Y031953D01*
X057871Y031996D01*
X042004Y031952D02*
X042006Y031995D01*
X042012Y032037D01*
X042021Y032079D01*
X042035Y032119D01*
X042052Y032159D01*
X042072Y032196D01*
X042096Y032232D01*
X042123Y032265D01*
X042153Y032295D01*
X042186Y032323D01*
X042221Y032348D01*
X042258Y032369D01*
X042297Y032387D01*
X042337Y032402D01*
X042378Y032412D01*
X042421Y032419D01*
X042463Y032422D01*
X042506Y032421D01*
X042549Y032416D01*
X042590Y032407D01*
X042631Y032395D01*
X042671Y032379D01*
X042709Y032359D01*
X042745Y032336D01*
X042779Y032310D01*
X042810Y032281D01*
X042839Y032249D01*
X042864Y032214D01*
X042886Y032178D01*
X042905Y032139D01*
X042920Y032099D01*
X042932Y032058D01*
X042940Y032016D01*
X042944Y031973D01*
X042944Y031931D01*
X042940Y031888D01*
X042932Y031846D01*
X042920Y031805D01*
X042905Y031765D01*
X042886Y031726D01*
X042864Y031690D01*
X042839Y031655D01*
X042810Y031623D01*
X042779Y031594D01*
X042745Y031568D01*
X042709Y031545D01*
X042671Y031525D01*
X042631Y031509D01*
X042590Y031497D01*
X042549Y031488D01*
X042506Y031483D01*
X042463Y031482D01*
X042421Y031485D01*
X042378Y031492D01*
X042337Y031502D01*
X042297Y031517D01*
X042258Y031535D01*
X042221Y031556D01*
X042186Y031581D01*
X042153Y031609D01*
X042123Y031639D01*
X042096Y031672D01*
X042072Y031708D01*
X042052Y031745D01*
X042035Y031785D01*
X042021Y031825D01*
X042012Y031867D01*
X042006Y031909D01*
X042004Y031952D01*
X041794Y028716D02*
X041796Y028768D01*
X041802Y028820D01*
X041812Y028871D01*
X041826Y028921D01*
X041843Y028970D01*
X041865Y029018D01*
X041889Y029063D01*
X041918Y029107D01*
X041949Y029149D01*
X041984Y029188D01*
X042022Y029224D01*
X042062Y029257D01*
X042104Y029287D01*
X042149Y029313D01*
X042196Y029337D01*
X042244Y029356D01*
X042294Y029372D01*
X042345Y029384D01*
X042396Y029392D01*
X042448Y029396D01*
X042500Y029396D01*
X042552Y029392D01*
X042603Y029384D01*
X042654Y029372D01*
X042704Y029356D01*
X042752Y029337D01*
X042799Y029313D01*
X042844Y029287D01*
X042886Y029257D01*
X042926Y029224D01*
X042964Y029188D01*
X042999Y029149D01*
X043030Y029107D01*
X043059Y029063D01*
X043083Y029018D01*
X043105Y028970D01*
X043122Y028921D01*
X043136Y028871D01*
X043146Y028820D01*
X043152Y028768D01*
X043154Y028716D01*
X043152Y028664D01*
X043146Y028612D01*
X043136Y028561D01*
X043122Y028511D01*
X043105Y028462D01*
X043083Y028414D01*
X043059Y028369D01*
X043030Y028325D01*
X042999Y028283D01*
X042964Y028244D01*
X042926Y028208D01*
X042886Y028175D01*
X042844Y028145D01*
X042799Y028119D01*
X042752Y028095D01*
X042704Y028076D01*
X042654Y028060D01*
X042603Y028048D01*
X042552Y028040D01*
X042500Y028036D01*
X042448Y028036D01*
X042396Y028040D01*
X042345Y028048D01*
X042294Y028060D01*
X042244Y028076D01*
X042196Y028095D01*
X042149Y028119D01*
X042104Y028145D01*
X042062Y028175D01*
X042022Y028208D01*
X041984Y028244D01*
X041949Y028283D01*
X041918Y028325D01*
X041889Y028369D01*
X041865Y028414D01*
X041843Y028462D01*
X041826Y028511D01*
X041812Y028561D01*
X041802Y028612D01*
X041796Y028664D01*
X041794Y028716D01*
X039703Y028716D02*
X039705Y028768D01*
X039711Y028820D01*
X039721Y028871D01*
X039735Y028921D01*
X039752Y028970D01*
X039774Y029018D01*
X039798Y029063D01*
X039827Y029107D01*
X039858Y029149D01*
X039893Y029188D01*
X039931Y029224D01*
X039971Y029257D01*
X040013Y029287D01*
X040058Y029313D01*
X040105Y029337D01*
X040153Y029356D01*
X040203Y029372D01*
X040254Y029384D01*
X040305Y029392D01*
X040357Y029396D01*
X040409Y029396D01*
X040461Y029392D01*
X040512Y029384D01*
X040563Y029372D01*
X040613Y029356D01*
X040661Y029337D01*
X040708Y029313D01*
X040753Y029287D01*
X040795Y029257D01*
X040835Y029224D01*
X040873Y029188D01*
X040908Y029149D01*
X040939Y029107D01*
X040968Y029063D01*
X040992Y029018D01*
X041014Y028970D01*
X041031Y028921D01*
X041045Y028871D01*
X041055Y028820D01*
X041061Y028768D01*
X041063Y028716D01*
X041061Y028664D01*
X041055Y028612D01*
X041045Y028561D01*
X041031Y028511D01*
X041014Y028462D01*
X040992Y028414D01*
X040968Y028369D01*
X040939Y028325D01*
X040908Y028283D01*
X040873Y028244D01*
X040835Y028208D01*
X040795Y028175D01*
X040753Y028145D01*
X040708Y028119D01*
X040661Y028095D01*
X040613Y028076D01*
X040563Y028060D01*
X040512Y028048D01*
X040461Y028040D01*
X040409Y028036D01*
X040357Y028036D01*
X040305Y028040D01*
X040254Y028048D01*
X040203Y028060D01*
X040153Y028076D01*
X040105Y028095D01*
X040058Y028119D01*
X040013Y028145D01*
X039971Y028175D01*
X039931Y028208D01*
X039893Y028244D01*
X039858Y028283D01*
X039827Y028325D01*
X039798Y028369D01*
X039774Y028414D01*
X039752Y028462D01*
X039735Y028511D01*
X039721Y028561D01*
X039711Y028612D01*
X039705Y028664D01*
X039703Y028716D01*
X025919Y028716D02*
X025921Y028768D01*
X025927Y028820D01*
X025937Y028871D01*
X025951Y028921D01*
X025968Y028970D01*
X025990Y029018D01*
X026014Y029063D01*
X026043Y029107D01*
X026074Y029149D01*
X026109Y029188D01*
X026147Y029224D01*
X026187Y029257D01*
X026229Y029287D01*
X026274Y029313D01*
X026321Y029337D01*
X026369Y029356D01*
X026419Y029372D01*
X026470Y029384D01*
X026521Y029392D01*
X026573Y029396D01*
X026625Y029396D01*
X026677Y029392D01*
X026728Y029384D01*
X026779Y029372D01*
X026829Y029356D01*
X026877Y029337D01*
X026924Y029313D01*
X026969Y029287D01*
X027011Y029257D01*
X027051Y029224D01*
X027089Y029188D01*
X027124Y029149D01*
X027155Y029107D01*
X027184Y029063D01*
X027208Y029018D01*
X027230Y028970D01*
X027247Y028921D01*
X027261Y028871D01*
X027271Y028820D01*
X027277Y028768D01*
X027279Y028716D01*
X027277Y028664D01*
X027271Y028612D01*
X027261Y028561D01*
X027247Y028511D01*
X027230Y028462D01*
X027208Y028414D01*
X027184Y028369D01*
X027155Y028325D01*
X027124Y028283D01*
X027089Y028244D01*
X027051Y028208D01*
X027011Y028175D01*
X026969Y028145D01*
X026924Y028119D01*
X026877Y028095D01*
X026829Y028076D01*
X026779Y028060D01*
X026728Y028048D01*
X026677Y028040D01*
X026625Y028036D01*
X026573Y028036D01*
X026521Y028040D01*
X026470Y028048D01*
X026419Y028060D01*
X026369Y028076D01*
X026321Y028095D01*
X026274Y028119D01*
X026229Y028145D01*
X026187Y028175D01*
X026147Y028208D01*
X026109Y028244D01*
X026074Y028283D01*
X026043Y028325D01*
X026014Y028369D01*
X025990Y028414D01*
X025968Y028462D01*
X025951Y028511D01*
X025937Y028561D01*
X025927Y028612D01*
X025921Y028664D01*
X025919Y028716D01*
X023828Y028716D02*
X023830Y028768D01*
X023836Y028820D01*
X023846Y028871D01*
X023860Y028921D01*
X023877Y028970D01*
X023899Y029018D01*
X023923Y029063D01*
X023952Y029107D01*
X023983Y029149D01*
X024018Y029188D01*
X024056Y029224D01*
X024096Y029257D01*
X024138Y029287D01*
X024183Y029313D01*
X024230Y029337D01*
X024278Y029356D01*
X024328Y029372D01*
X024379Y029384D01*
X024430Y029392D01*
X024482Y029396D01*
X024534Y029396D01*
X024586Y029392D01*
X024637Y029384D01*
X024688Y029372D01*
X024738Y029356D01*
X024786Y029337D01*
X024833Y029313D01*
X024878Y029287D01*
X024920Y029257D01*
X024960Y029224D01*
X024998Y029188D01*
X025033Y029149D01*
X025064Y029107D01*
X025093Y029063D01*
X025117Y029018D01*
X025139Y028970D01*
X025156Y028921D01*
X025170Y028871D01*
X025180Y028820D01*
X025186Y028768D01*
X025188Y028716D01*
X025186Y028664D01*
X025180Y028612D01*
X025170Y028561D01*
X025156Y028511D01*
X025139Y028462D01*
X025117Y028414D01*
X025093Y028369D01*
X025064Y028325D01*
X025033Y028283D01*
X024998Y028244D01*
X024960Y028208D01*
X024920Y028175D01*
X024878Y028145D01*
X024833Y028119D01*
X024786Y028095D01*
X024738Y028076D01*
X024688Y028060D01*
X024637Y028048D01*
X024586Y028040D01*
X024534Y028036D01*
X024482Y028036D01*
X024430Y028040D01*
X024379Y028048D01*
X024328Y028060D01*
X024278Y028076D01*
X024230Y028095D01*
X024183Y028119D01*
X024138Y028145D01*
X024096Y028175D01*
X024056Y028208D01*
X024018Y028244D01*
X023983Y028283D01*
X023952Y028325D01*
X023923Y028369D01*
X023899Y028414D01*
X023877Y028462D01*
X023860Y028511D01*
X023846Y028561D01*
X023836Y028612D01*
X023830Y028664D01*
X023828Y028716D01*
X024038Y031952D02*
X024040Y031995D01*
X024046Y032037D01*
X024055Y032079D01*
X024069Y032119D01*
X024086Y032159D01*
X024106Y032196D01*
X024130Y032232D01*
X024157Y032265D01*
X024187Y032295D01*
X024220Y032323D01*
X024255Y032348D01*
X024292Y032369D01*
X024331Y032387D01*
X024371Y032402D01*
X024412Y032412D01*
X024455Y032419D01*
X024497Y032422D01*
X024540Y032421D01*
X024583Y032416D01*
X024624Y032407D01*
X024665Y032395D01*
X024705Y032379D01*
X024743Y032359D01*
X024779Y032336D01*
X024813Y032310D01*
X024844Y032281D01*
X024873Y032249D01*
X024898Y032214D01*
X024920Y032178D01*
X024939Y032139D01*
X024954Y032099D01*
X024966Y032058D01*
X024974Y032016D01*
X024978Y031973D01*
X024978Y031931D01*
X024974Y031888D01*
X024966Y031846D01*
X024954Y031805D01*
X024939Y031765D01*
X024920Y031726D01*
X024898Y031690D01*
X024873Y031655D01*
X024844Y031623D01*
X024813Y031594D01*
X024779Y031568D01*
X024743Y031545D01*
X024705Y031525D01*
X024665Y031509D01*
X024624Y031497D01*
X024583Y031488D01*
X024540Y031483D01*
X024497Y031482D01*
X024455Y031485D01*
X024412Y031492D01*
X024371Y031502D01*
X024331Y031517D01*
X024292Y031535D01*
X024255Y031556D01*
X024220Y031581D01*
X024187Y031609D01*
X024157Y031639D01*
X024130Y031672D01*
X024106Y031708D01*
X024086Y031745D01*
X024069Y031785D01*
X024055Y031825D01*
X024046Y031867D01*
X024040Y031909D01*
X024038Y031952D01*
X026129Y031952D02*
X026131Y031995D01*
X026137Y032037D01*
X026146Y032079D01*
X026160Y032119D01*
X026177Y032159D01*
X026197Y032196D01*
X026221Y032232D01*
X026248Y032265D01*
X026278Y032295D01*
X026311Y032323D01*
X026346Y032348D01*
X026383Y032369D01*
X026422Y032387D01*
X026462Y032402D01*
X026503Y032412D01*
X026546Y032419D01*
X026588Y032422D01*
X026631Y032421D01*
X026674Y032416D01*
X026715Y032407D01*
X026756Y032395D01*
X026796Y032379D01*
X026834Y032359D01*
X026870Y032336D01*
X026904Y032310D01*
X026935Y032281D01*
X026964Y032249D01*
X026989Y032214D01*
X027011Y032178D01*
X027030Y032139D01*
X027045Y032099D01*
X027057Y032058D01*
X027065Y032016D01*
X027069Y031973D01*
X027069Y031931D01*
X027065Y031888D01*
X027057Y031846D01*
X027045Y031805D01*
X027030Y031765D01*
X027011Y031726D01*
X026989Y031690D01*
X026964Y031655D01*
X026935Y031623D01*
X026904Y031594D01*
X026870Y031568D01*
X026834Y031545D01*
X026796Y031525D01*
X026756Y031509D01*
X026715Y031497D01*
X026674Y031488D01*
X026631Y031483D01*
X026588Y031482D01*
X026546Y031485D01*
X026503Y031492D01*
X026462Y031502D01*
X026422Y031517D01*
X026383Y031535D01*
X026346Y031556D01*
X026311Y031581D01*
X026278Y031609D01*
X026248Y031639D01*
X026221Y031672D01*
X026197Y031708D01*
X026177Y031745D01*
X026160Y031785D01*
X026146Y031825D01*
X026137Y031867D01*
X026131Y031909D01*
X026129Y031952D01*
X010044Y028716D02*
X010046Y028768D01*
X010052Y028820D01*
X010062Y028871D01*
X010076Y028921D01*
X010093Y028970D01*
X010115Y029018D01*
X010139Y029063D01*
X010168Y029107D01*
X010199Y029149D01*
X010234Y029188D01*
X010272Y029224D01*
X010312Y029257D01*
X010354Y029287D01*
X010399Y029313D01*
X010446Y029337D01*
X010494Y029356D01*
X010544Y029372D01*
X010595Y029384D01*
X010646Y029392D01*
X010698Y029396D01*
X010750Y029396D01*
X010802Y029392D01*
X010853Y029384D01*
X010904Y029372D01*
X010954Y029356D01*
X011002Y029337D01*
X011049Y029313D01*
X011094Y029287D01*
X011136Y029257D01*
X011176Y029224D01*
X011214Y029188D01*
X011249Y029149D01*
X011280Y029107D01*
X011309Y029063D01*
X011333Y029018D01*
X011355Y028970D01*
X011372Y028921D01*
X011386Y028871D01*
X011396Y028820D01*
X011402Y028768D01*
X011404Y028716D01*
X011402Y028664D01*
X011396Y028612D01*
X011386Y028561D01*
X011372Y028511D01*
X011355Y028462D01*
X011333Y028414D01*
X011309Y028369D01*
X011280Y028325D01*
X011249Y028283D01*
X011214Y028244D01*
X011176Y028208D01*
X011136Y028175D01*
X011094Y028145D01*
X011049Y028119D01*
X011002Y028095D01*
X010954Y028076D01*
X010904Y028060D01*
X010853Y028048D01*
X010802Y028040D01*
X010750Y028036D01*
X010698Y028036D01*
X010646Y028040D01*
X010595Y028048D01*
X010544Y028060D01*
X010494Y028076D01*
X010446Y028095D01*
X010399Y028119D01*
X010354Y028145D01*
X010312Y028175D01*
X010272Y028208D01*
X010234Y028244D01*
X010199Y028283D01*
X010168Y028325D01*
X010139Y028369D01*
X010115Y028414D01*
X010093Y028462D01*
X010076Y028511D01*
X010062Y028561D01*
X010052Y028612D01*
X010046Y028664D01*
X010044Y028716D01*
X008366Y028850D02*
X007616Y028850D01*
X007616Y026350D01*
X008366Y026350D01*
X008366Y028850D01*
D11*
X006276Y028209D02*
X005208Y028209D01*
X005742Y027675D02*
X005742Y028743D01*
X006258Y018976D02*
X005190Y018976D01*
X005315Y007101D02*
X006383Y007101D01*
X067958Y034084D02*
X069026Y034084D01*
X068492Y033550D02*
X068492Y034618D01*
D12*
X025262Y023246D02*
X025186Y023246D01*
X025036Y023246D02*
X024736Y023246D01*
X024736Y023171D02*
X024736Y023321D01*
X024811Y023514D02*
X024886Y023589D01*
X024886Y023815D01*
X024961Y023815D02*
X024736Y023815D01*
X024736Y023589D01*
X024811Y023514D01*
X025036Y023589D02*
X025036Y023740D01*
X024961Y023815D01*
X025036Y023246D02*
X025036Y023171D01*
X025036Y022955D02*
X025036Y022730D01*
X024961Y022655D01*
X024811Y022655D01*
X024736Y022730D01*
X024736Y022955D01*
X025036Y022450D02*
X025036Y022375D01*
X024886Y022225D01*
X024736Y022225D02*
X025036Y022225D01*
X024961Y022010D02*
X024736Y022010D01*
X024736Y021785D01*
X024811Y021710D01*
X024886Y021785D01*
X024886Y022010D01*
X024961Y022010D02*
X025036Y021935D01*
X025036Y021785D01*
X025036Y021494D02*
X024661Y021494D01*
X024586Y021419D01*
X024586Y021344D01*
X024736Y021269D02*
X024811Y021194D01*
X024961Y021194D01*
X025036Y021269D01*
X025036Y021494D01*
X024736Y021494D02*
X024736Y021269D01*
X024736Y020979D02*
X025036Y020979D01*
X024736Y020979D02*
X024736Y020753D01*
X024811Y020678D01*
X025036Y020678D01*
X024961Y020463D02*
X024736Y020463D01*
X024961Y020463D02*
X025036Y020388D01*
X025036Y020238D01*
X024961Y020163D01*
X024961Y019947D02*
X024886Y019947D01*
X024886Y019647D01*
X024811Y019647D02*
X024961Y019647D01*
X025036Y019722D01*
X025036Y019872D01*
X024961Y019947D01*
X024736Y019872D02*
X024736Y019722D01*
X024811Y019647D01*
X024661Y019453D02*
X025036Y019453D01*
X025186Y019453D02*
X025262Y019453D01*
X025186Y019088D02*
X024736Y018788D01*
X025036Y018583D02*
X025036Y018508D01*
X024886Y018358D01*
X024736Y018358D02*
X025036Y018358D01*
X024961Y018143D02*
X024886Y018143D01*
X024886Y017842D01*
X024811Y017842D02*
X024961Y017842D01*
X025036Y017917D01*
X025036Y018067D01*
X024961Y018143D01*
X024736Y018067D02*
X024736Y017917D01*
X024811Y017842D01*
X024811Y017627D02*
X024886Y017552D01*
X024886Y017402D01*
X024961Y017327D01*
X025036Y017402D01*
X025036Y017627D01*
X024811Y017627D02*
X024736Y017552D01*
X024736Y017327D01*
X024736Y017111D02*
X025036Y017111D01*
X024736Y017111D02*
X024736Y016886D01*
X024811Y016811D01*
X025036Y016811D01*
X025186Y016596D02*
X024736Y016295D01*
X024736Y016080D02*
X024961Y016080D01*
X025036Y016005D01*
X024961Y015930D01*
X024736Y015930D01*
X024736Y015780D02*
X025036Y015780D01*
X025036Y015855D01*
X024961Y015930D01*
X024961Y015564D02*
X025036Y015489D01*
X025036Y015339D01*
X024961Y015264D01*
X024811Y015264D01*
X024736Y015339D01*
X024736Y015489D01*
X024811Y015564D01*
X024961Y015564D01*
X025036Y015049D02*
X025036Y014824D01*
X024961Y014748D01*
X024811Y014748D01*
X024736Y014824D01*
X024736Y015049D01*
X024736Y014566D02*
X024736Y014491D01*
X024811Y014491D01*
X024811Y014566D01*
X024736Y014566D01*
X024886Y014275D02*
X024886Y013975D01*
X024811Y013975D02*
X024961Y013975D01*
X025036Y014050D01*
X025036Y014200D01*
X024961Y014275D01*
X024886Y014275D01*
X024736Y014200D02*
X024736Y014050D01*
X024811Y013975D01*
X024811Y013760D02*
X024961Y013760D01*
X025036Y013685D01*
X025036Y013459D01*
X025186Y013459D02*
X024736Y013459D01*
X024736Y013685D01*
X024811Y013760D01*
X024736Y013244D02*
X025036Y013244D01*
X024736Y013244D02*
X024736Y013019D01*
X024811Y012944D01*
X025036Y012944D01*
X025036Y012750D02*
X025036Y012600D01*
X025111Y012675D02*
X024811Y012675D01*
X024736Y012750D01*
X024736Y012385D02*
X025036Y012385D01*
X024736Y012385D02*
X024736Y012159D01*
X024811Y012084D01*
X025036Y012084D01*
X024961Y011869D02*
X025036Y011794D01*
X025036Y011644D01*
X024961Y011569D01*
X024811Y011569D01*
X024736Y011644D01*
X024736Y011794D01*
X024811Y011869D01*
X024961Y011869D01*
X025036Y011353D02*
X024661Y011353D01*
X024586Y011278D01*
X024586Y011203D01*
X024736Y011128D02*
X024736Y011353D01*
X024736Y011128D02*
X024811Y011053D01*
X025036Y011053D01*
X024586Y019303D02*
X024586Y019378D01*
X024661Y019453D01*
X024736Y020163D02*
X025186Y020163D01*
D13*
X008741Y020475D02*
X008741Y019825D01*
X006666Y019825D01*
X005091Y019825D02*
X001741Y019825D01*
X001741Y026125D01*
X005091Y026125D01*
X006666Y026125D02*
X008741Y026125D01*
X008741Y025475D01*
X008741Y023225D02*
X008741Y022725D01*
X064031Y021050D02*
X064031Y020943D01*
X064084Y020890D01*
X064191Y020890D02*
X064245Y020997D01*
X064245Y021050D01*
X064191Y021104D01*
X064084Y021104D01*
X064031Y021050D01*
X064191Y020890D02*
X064351Y020890D01*
X064351Y021104D01*
X064656Y020890D02*
X064709Y020890D01*
X064923Y021104D01*
X064976Y021104D01*
X064976Y020890D01*
X065281Y020943D02*
X065281Y021050D01*
X065334Y021104D01*
X065548Y021104D01*
X065601Y021050D01*
X065601Y020943D01*
X065548Y020890D01*
X065495Y020890D01*
X065441Y020943D01*
X065441Y021104D01*
X065281Y020943D02*
X065334Y020890D01*
X065906Y020869D02*
X065959Y020815D01*
X066013Y020869D01*
X066013Y021029D01*
X066066Y021029D02*
X065906Y021029D01*
X065906Y020869D01*
X066120Y020869D02*
X066120Y020975D01*
X066066Y021029D01*
X066066Y021184D02*
X066120Y021237D01*
X066120Y021397D01*
X066013Y021344D02*
X066013Y021237D01*
X066066Y021184D01*
X065906Y021184D02*
X065906Y021344D01*
X065959Y021397D01*
X066013Y021344D01*
X066066Y021552D02*
X066120Y021605D01*
X066120Y021765D01*
X066013Y021712D02*
X066013Y021605D01*
X066066Y021552D01*
X065906Y021552D02*
X065906Y021712D01*
X065959Y021765D01*
X066013Y021712D01*
X066656Y021759D02*
X066656Y021599D01*
X066709Y021545D01*
X066763Y021599D01*
X066763Y021759D01*
X066816Y021759D02*
X066656Y021759D01*
X066816Y021759D02*
X066870Y021706D01*
X066870Y021599D01*
X066870Y021407D02*
X066870Y021300D01*
X066923Y021353D02*
X066709Y021353D01*
X066656Y021407D01*
X066709Y021145D02*
X066656Y021092D01*
X066656Y020985D01*
X066709Y020932D01*
X066816Y020985D02*
X066816Y021092D01*
X066763Y021145D01*
X066709Y021145D01*
X066816Y020985D02*
X066870Y020932D01*
X066923Y020932D01*
X066976Y020985D01*
X066976Y021092D01*
X066923Y021145D01*
X066120Y020668D02*
X066120Y020615D01*
X066013Y020508D01*
X065906Y020508D02*
X066120Y020508D01*
X066120Y020354D02*
X066066Y020300D01*
X066066Y020140D01*
X065906Y020140D02*
X065906Y020300D01*
X065959Y020354D01*
X066013Y020354D01*
X066066Y020300D01*
X066120Y020354D02*
X066173Y020354D01*
X066226Y020300D01*
X066226Y020140D01*
X065906Y020140D01*
X066656Y020048D02*
X066656Y019941D01*
X066709Y019888D01*
X066816Y019888D01*
X066870Y019941D01*
X066870Y020048D01*
X066816Y020101D01*
X066763Y020101D01*
X066763Y019888D01*
X066816Y019733D02*
X066709Y019733D01*
X066656Y019680D01*
X066656Y019520D01*
X066549Y019520D02*
X066870Y019520D01*
X066870Y019680D01*
X066816Y019733D01*
X066120Y019383D02*
X066066Y019436D01*
X065906Y019436D01*
X065906Y019329D02*
X066066Y019329D01*
X066120Y019383D01*
X066066Y019329D02*
X066120Y019276D01*
X066120Y019223D01*
X065906Y019223D01*
X065906Y019068D02*
X066120Y019068D01*
X066120Y018854D02*
X065959Y018854D01*
X065906Y018908D01*
X065906Y019068D01*
X065906Y018700D02*
X066066Y018700D01*
X066120Y018646D01*
X066120Y018486D01*
X065906Y018486D01*
X065906Y018347D02*
X065906Y018240D01*
X065906Y018294D02*
X066120Y018294D01*
X066120Y018240D01*
X066226Y018294D02*
X066280Y018294D01*
X066066Y018086D02*
X065906Y018086D01*
X065906Y017979D02*
X066066Y017979D01*
X066120Y018032D01*
X066066Y018086D01*
X066066Y017979D02*
X066120Y017926D01*
X066120Y017872D01*
X065906Y017872D01*
X065906Y017717D02*
X066120Y017717D01*
X066120Y017504D02*
X065959Y017504D01*
X065906Y017557D01*
X065906Y017717D01*
X065601Y017818D02*
X065548Y017765D01*
X065601Y017818D02*
X065601Y017925D01*
X065548Y017979D01*
X065495Y017979D01*
X065281Y017765D01*
X065281Y017979D01*
X065334Y018133D02*
X065548Y018347D01*
X065334Y018347D01*
X065281Y018293D01*
X065281Y018187D01*
X065334Y018133D01*
X065548Y018133D01*
X065601Y018187D01*
X065601Y018293D01*
X065548Y018347D01*
X064976Y018347D02*
X064976Y018133D01*
X064976Y018347D02*
X064923Y018347D01*
X064709Y018133D01*
X064656Y018133D01*
X064656Y017979D02*
X064656Y017765D01*
X064656Y017872D02*
X064976Y017872D01*
X064870Y017765D01*
X064351Y017872D02*
X064031Y017872D01*
X064031Y017765D02*
X064031Y017979D01*
X064031Y018133D02*
X064245Y018347D01*
X064298Y018347D01*
X064351Y018293D01*
X064351Y018187D01*
X064298Y018133D01*
X064351Y017872D02*
X064245Y017765D01*
X064031Y018133D02*
X064031Y018347D01*
X065906Y017365D02*
X065906Y017258D01*
X065906Y017312D02*
X066226Y017312D01*
X066226Y017258D01*
X066120Y017104D02*
X065906Y017104D01*
X066066Y017104D02*
X066066Y016890D01*
X066120Y016890D02*
X066226Y016997D01*
X066120Y017104D01*
X066120Y016890D02*
X065906Y016890D01*
X065601Y016490D02*
X065441Y016330D01*
X065441Y016543D01*
X065281Y016490D02*
X065601Y016490D01*
X065601Y016175D02*
X065281Y016175D01*
X065281Y015962D02*
X065601Y015962D01*
X065495Y016068D01*
X065601Y016175D01*
X064976Y016175D02*
X064656Y016175D01*
X064656Y015962D02*
X064976Y015962D01*
X064870Y016068D01*
X064976Y016175D01*
X064816Y016330D02*
X064816Y016543D01*
X064656Y016490D02*
X064976Y016490D01*
X064816Y016330D01*
X064351Y016175D02*
X064031Y016175D01*
X064031Y015962D02*
X064351Y015962D01*
X064245Y016068D01*
X064351Y016175D01*
X064191Y016330D02*
X064191Y016543D01*
X064031Y016490D02*
X064351Y016490D01*
X064191Y016330D01*
X064245Y015438D02*
X064031Y015225D01*
X064138Y015070D02*
X064138Y014857D01*
X064191Y014857D02*
X064245Y014910D01*
X064245Y015017D01*
X064191Y015070D01*
X064138Y015070D01*
X064031Y015017D02*
X064031Y014910D01*
X064084Y014857D01*
X064191Y014857D01*
X064191Y014702D02*
X064191Y014488D01*
X064031Y014488D02*
X064351Y014488D01*
X064351Y014702D02*
X064031Y014702D01*
X064656Y014702D02*
X064976Y014702D01*
X064816Y014702D02*
X064816Y014488D01*
X064656Y014488D02*
X064976Y014488D01*
X065281Y014488D02*
X065601Y014488D01*
X065441Y014488D02*
X065441Y014702D01*
X065441Y014857D02*
X065495Y014910D01*
X065495Y015017D01*
X065441Y015070D01*
X065388Y015070D01*
X065388Y014857D01*
X065441Y014857D02*
X065334Y014857D01*
X065281Y014910D01*
X065281Y015017D01*
X065281Y015225D02*
X065495Y015438D01*
X065495Y015225D02*
X065281Y015438D01*
X064870Y015438D02*
X064656Y015225D01*
X064763Y015070D02*
X064763Y014857D01*
X064816Y014857D02*
X064870Y014910D01*
X064870Y015017D01*
X064816Y015070D01*
X064763Y015070D01*
X064656Y015017D02*
X064656Y014910D01*
X064709Y014857D01*
X064816Y014857D01*
X064870Y015225D02*
X064656Y015438D01*
X064245Y015225D02*
X064031Y015438D01*
X065281Y014702D02*
X065601Y014702D01*
X065441Y013965D02*
X065281Y013965D01*
X065281Y013858D02*
X065441Y013858D01*
X065495Y013912D01*
X065441Y013965D01*
X065441Y013858D02*
X065495Y013805D01*
X065495Y013752D01*
X065281Y013752D01*
X065281Y013597D02*
X065441Y013597D01*
X065495Y013543D01*
X065441Y013490D01*
X065281Y013490D01*
X065281Y013383D02*
X065495Y013383D01*
X065495Y013437D01*
X065441Y013490D01*
X065388Y013229D02*
X065334Y013229D01*
X065281Y013175D01*
X065281Y013068D01*
X065334Y013015D01*
X065388Y013015D01*
X065441Y013068D01*
X065441Y013175D01*
X065388Y013229D01*
X065441Y013175D02*
X065495Y013229D01*
X065548Y013229D01*
X065601Y013175D01*
X065601Y013068D01*
X065548Y013015D01*
X065495Y013015D01*
X065441Y013068D01*
X064976Y013015D02*
X064976Y013229D01*
X064923Y013229D01*
X064709Y013015D01*
X064656Y013015D01*
X064656Y013383D02*
X064870Y013383D01*
X064870Y013437D01*
X064816Y013490D01*
X064870Y013543D01*
X064816Y013597D01*
X064656Y013597D01*
X064656Y013490D02*
X064816Y013490D01*
X064870Y013752D02*
X064870Y013805D01*
X064816Y013858D01*
X064870Y013912D01*
X064816Y013965D01*
X064656Y013965D01*
X064656Y013858D02*
X064816Y013858D01*
X064870Y013752D02*
X064656Y013752D01*
X064245Y013752D02*
X064245Y013805D01*
X064191Y013858D01*
X064245Y013912D01*
X064191Y013965D01*
X064031Y013965D01*
X064031Y013858D02*
X064191Y013858D01*
X064245Y013752D02*
X064031Y013752D01*
X064031Y013597D02*
X064191Y013597D01*
X064245Y013543D01*
X064191Y013490D01*
X064031Y013490D01*
X064031Y013383D02*
X064245Y013383D01*
X064245Y013437D01*
X064191Y013490D01*
X064138Y013229D02*
X064191Y013175D01*
X064191Y013015D01*
X064084Y013015D01*
X064031Y013068D01*
X064031Y013175D01*
X064084Y013229D01*
X064138Y013229D01*
X064298Y013122D02*
X064191Y013015D01*
X064298Y013122D02*
X064351Y013229D01*
X066656Y013312D02*
X066709Y013258D01*
X066763Y013312D01*
X066763Y013472D01*
X066816Y013472D02*
X066656Y013472D01*
X066656Y013312D01*
X066656Y013104D02*
X066976Y013104D01*
X066870Y012997D01*
X066976Y012890D01*
X066656Y012890D01*
X066870Y013312D02*
X066870Y013418D01*
X066816Y013472D01*
X066870Y013627D02*
X066656Y013840D01*
X066656Y013627D02*
X066870Y013840D01*
X066870Y014363D02*
X066816Y014417D01*
X066816Y014523D01*
X066763Y014577D01*
X066709Y014577D01*
X066656Y014523D01*
X066656Y014417D01*
X066709Y014363D01*
X066870Y014363D02*
X066923Y014363D01*
X066976Y014417D01*
X066976Y014523D01*
X066923Y014577D01*
X066870Y014732D02*
X066870Y014785D01*
X066656Y014785D01*
X066656Y014732D02*
X066656Y014838D01*
X066656Y014977D02*
X066870Y014977D01*
X066870Y015137D01*
X066816Y015191D01*
X066656Y015191D01*
X066709Y015345D02*
X066656Y015399D01*
X066656Y015559D01*
X066603Y015559D02*
X066870Y015559D01*
X066870Y015399D01*
X066816Y015345D01*
X066709Y015345D01*
X066549Y015452D02*
X066549Y015506D01*
X066603Y015559D01*
X066656Y015714D02*
X066656Y015821D01*
X066656Y015767D02*
X066976Y015767D01*
X066976Y015714D01*
X066816Y015959D02*
X066870Y016013D01*
X066870Y016119D01*
X066816Y016173D01*
X066763Y016173D01*
X066763Y015959D01*
X066816Y015959D02*
X066709Y015959D01*
X066656Y016013D01*
X066656Y016119D01*
X066656Y016696D02*
X066976Y016696D01*
X066870Y016803D01*
X066976Y016909D01*
X066656Y016909D01*
X066709Y017064D02*
X066656Y017118D01*
X066656Y017224D01*
X066709Y017278D01*
X066816Y017278D01*
X066870Y017224D01*
X066870Y017118D01*
X066816Y017064D01*
X066709Y017064D01*
X066709Y017433D02*
X066816Y017433D01*
X066870Y017486D01*
X066870Y017646D01*
X066976Y017646D02*
X066656Y017646D01*
X066656Y017486D01*
X066709Y017433D01*
X066709Y017801D02*
X066656Y017854D01*
X066656Y018014D01*
X066870Y018014D01*
X066976Y018169D02*
X066976Y018223D01*
X066656Y018223D01*
X066656Y018276D02*
X066656Y018169D01*
X066709Y018415D02*
X066816Y018415D01*
X066870Y018468D01*
X066870Y018575D01*
X066816Y018628D01*
X066763Y018628D01*
X066763Y018415D01*
X066709Y018415D02*
X066656Y018468D01*
X066656Y018575D01*
X066656Y018783D02*
X066656Y018943D01*
X066709Y018997D01*
X066763Y018943D01*
X066763Y018836D01*
X066816Y018783D01*
X066870Y018836D01*
X066870Y018997D01*
X066870Y017801D02*
X066709Y017801D01*
X066656Y020256D02*
X066870Y020256D01*
X066870Y020363D02*
X066870Y020416D01*
X066870Y020363D02*
X066763Y020256D01*
X066816Y021914D02*
X066709Y021914D01*
X066656Y021967D01*
X066656Y022127D01*
X066656Y022282D02*
X066976Y022282D01*
X066870Y022127D02*
X066870Y021967D01*
X066816Y021914D01*
X066763Y022282D02*
X066870Y022442D01*
X066763Y022282D02*
X066656Y022442D01*
X066976Y014785D02*
X067030Y014785D01*
D14*
X066366Y016725D02*
X063866Y016725D01*
X063866Y012850D01*
X064491Y012850D01*
X065116Y012850D01*
X065741Y012850D01*
X065741Y022475D01*
X065116Y022475D01*
X064491Y022475D01*
X063866Y022475D01*
X063866Y019600D01*
X066366Y019600D01*
X066366Y016725D01*
X063866Y016725D02*
X063866Y019600D01*
X066366Y019600D02*
X066366Y022475D01*
X065741Y022475D01*
X065116Y022475D02*
X065116Y012850D01*
X064491Y012850D02*
X064491Y022475D01*
X066911Y027010D02*
X066911Y028180D01*
X068071Y028180D02*
X068071Y027010D01*
X010630Y013419D02*
X010586Y013419D01*
X010500Y013419D02*
X010326Y013419D01*
X010326Y013462D02*
X010326Y013375D01*
X010369Y013254D02*
X010500Y013254D01*
X010500Y013375D02*
X010500Y013419D01*
X010500Y013572D02*
X010500Y013659D01*
X010543Y013615D02*
X010369Y013615D01*
X010326Y013659D01*
X010326Y013768D02*
X010586Y013768D01*
X010500Y013812D02*
X010500Y013898D01*
X010456Y013942D01*
X010326Y013942D01*
X010456Y013768D02*
X010500Y013812D01*
X010543Y014358D02*
X010586Y014401D01*
X010586Y014488D01*
X010543Y014531D01*
X010500Y014531D01*
X010456Y014488D01*
X010413Y014531D01*
X010369Y014531D01*
X010326Y014488D01*
X010326Y014401D01*
X010369Y014358D01*
X010456Y014444D02*
X010456Y014488D01*
X010456Y014652D02*
X010456Y014782D01*
X010413Y014826D01*
X010369Y014826D01*
X010326Y014782D01*
X010326Y014696D01*
X010369Y014652D01*
X010456Y014652D01*
X010543Y014739D01*
X010586Y014826D01*
X010456Y014947D02*
X010369Y014947D01*
X010326Y014990D01*
X010326Y015120D01*
X010283Y015120D02*
X010500Y015120D01*
X010500Y014990D01*
X010456Y014947D01*
X010239Y015034D02*
X010239Y015077D01*
X010283Y015120D01*
X010369Y015242D02*
X010413Y015285D01*
X010413Y015415D01*
X010456Y015415D02*
X010326Y015415D01*
X010326Y015285D01*
X010369Y015242D01*
X010500Y015285D02*
X010500Y015372D01*
X010456Y015415D01*
X010326Y015831D02*
X010586Y016004D01*
X010543Y016420D02*
X010586Y016463D01*
X010586Y016550D01*
X010543Y016594D01*
X010369Y016420D01*
X010326Y016463D01*
X010326Y016550D01*
X010369Y016594D01*
X010543Y016594D01*
X010543Y016420D02*
X010369Y016420D01*
X010369Y016715D02*
X010369Y016758D01*
X010326Y016758D01*
X010326Y016715D01*
X010369Y016715D01*
X010369Y016862D02*
X010543Y017036D01*
X010369Y017036D01*
X010326Y016992D01*
X010326Y016905D01*
X010369Y016862D01*
X010543Y016862D01*
X010586Y016905D01*
X010586Y016992D01*
X010543Y017036D01*
X010500Y017157D02*
X010586Y017243D01*
X010326Y017243D01*
X010326Y017157D02*
X010326Y017330D01*
X010326Y017451D02*
X010500Y017625D01*
X010543Y017625D01*
X010586Y017582D01*
X010586Y017495D01*
X010543Y017451D01*
X010326Y017451D02*
X010326Y017625D01*
X010326Y017746D02*
X010369Y017746D01*
X010543Y017920D01*
X010586Y017920D01*
X010586Y017746D01*
X010500Y018041D02*
X010500Y018084D01*
X010456Y018127D01*
X010500Y018171D01*
X010456Y018214D01*
X010326Y018214D01*
X010326Y018127D02*
X010456Y018127D01*
X010500Y018041D02*
X010326Y018041D01*
X010326Y018335D02*
X010500Y018335D01*
X010500Y018379D01*
X010456Y018422D01*
X010500Y018465D01*
X010456Y018509D01*
X010326Y018509D01*
X010326Y018422D02*
X010456Y018422D01*
X010369Y013254D02*
X010326Y013211D01*
X010369Y013167D01*
X010326Y013124D01*
X010369Y013081D01*
X010500Y013081D01*
X010456Y012665D02*
X010413Y012665D01*
X010413Y012491D01*
X010456Y012491D02*
X010500Y012535D01*
X010500Y012622D01*
X010456Y012665D01*
X010326Y012622D02*
X010326Y012535D01*
X010369Y012491D01*
X010456Y012491D01*
X010500Y012370D02*
X010500Y012240D01*
X010456Y012197D01*
X010413Y012240D01*
X010413Y012327D01*
X010369Y012370D01*
X010326Y012327D01*
X010326Y012197D01*
X010326Y012076D02*
X010500Y012076D01*
X010500Y011902D02*
X010369Y011902D01*
X010326Y011945D01*
X010326Y012076D01*
X010456Y011792D02*
X010456Y011706D01*
X010543Y011749D02*
X010586Y011792D01*
X010543Y011749D02*
X010326Y011749D01*
X010413Y011290D02*
X010413Y011116D01*
X010456Y011116D02*
X010500Y011160D01*
X010500Y011246D01*
X010456Y011290D01*
X010413Y011290D01*
X010326Y011246D02*
X010326Y011160D01*
X010369Y011116D01*
X010456Y011116D01*
X010500Y010995D02*
X010500Y010865D01*
X010456Y010822D01*
X010369Y010822D01*
X010326Y010865D01*
X010326Y010995D01*
X010326Y010701D02*
X010326Y010570D01*
X010369Y010527D01*
X010413Y010570D01*
X010413Y010701D01*
X010456Y010701D02*
X010326Y010701D01*
X010456Y010701D02*
X010500Y010657D01*
X010500Y010570D01*
X010586Y010374D02*
X010326Y010374D01*
X010326Y010331D02*
X010326Y010417D01*
X010369Y010209D02*
X010326Y010166D01*
X010326Y010036D01*
X010239Y010036D02*
X010500Y010036D01*
X010500Y010166D01*
X010456Y010209D01*
X010369Y010209D01*
X010586Y010331D02*
X010586Y010374D01*
X010456Y009915D02*
X010413Y009915D01*
X010413Y009741D01*
X010456Y009741D02*
X010500Y009785D01*
X010500Y009871D01*
X010456Y009915D01*
X010326Y009871D02*
X010326Y009785D01*
X010369Y009741D01*
X010456Y009741D01*
X010456Y009620D02*
X010413Y009577D01*
X010413Y009447D01*
X010413Y009533D02*
X010326Y009620D01*
X010456Y009620D02*
X010543Y009620D01*
X010586Y009577D01*
X010586Y009447D01*
X010326Y009447D01*
X009461Y009015D02*
X009288Y008755D01*
X009288Y009015D01*
X009461Y009015D02*
X009461Y008755D01*
X009166Y008798D02*
X009123Y008755D01*
X009036Y008755D01*
X008993Y008798D01*
X008993Y008885D01*
X009036Y008928D01*
X009123Y008928D01*
X009166Y008885D01*
X009166Y008798D01*
X008872Y008755D02*
X008872Y008928D01*
X008742Y008928D01*
X008698Y008885D01*
X008698Y008755D01*
X008577Y008885D02*
X008404Y008885D01*
X008282Y008885D02*
X008152Y008885D01*
X008109Y008842D01*
X008109Y008798D01*
X008152Y008755D01*
X008282Y008755D01*
X008282Y009015D01*
X008152Y009015D01*
X008109Y008972D01*
X008109Y008928D01*
X008152Y008885D01*
X007988Y008798D02*
X007944Y008842D01*
X007814Y008842D01*
X007814Y008885D02*
X007814Y008755D01*
X007944Y008755D01*
X007988Y008798D01*
X007944Y008928D02*
X007858Y008928D01*
X007814Y008885D01*
X007693Y008928D02*
X007606Y008928D01*
X007650Y008972D02*
X007650Y008798D01*
X007606Y008755D01*
X007453Y008798D02*
X007410Y008755D01*
X007453Y008798D02*
X007453Y008972D01*
X007410Y008928D02*
X007497Y008928D01*
X007300Y008972D02*
X007300Y008798D01*
X007257Y008755D01*
X007170Y008755D01*
X007127Y008798D01*
X007127Y008885D01*
X007214Y008885D01*
X007300Y008972D02*
X007257Y009015D01*
X007170Y009015D01*
X007127Y008972D01*
X007006Y008972D02*
X006962Y009015D01*
X006876Y009015D01*
X006832Y008972D01*
X006832Y008798D01*
X006876Y008755D01*
X006962Y008755D01*
X007006Y008798D01*
X007006Y008972D01*
X006416Y008928D02*
X006330Y009015D01*
X006330Y008755D01*
X006416Y008755D02*
X006243Y008755D01*
X006122Y008798D02*
X006078Y008755D01*
X005992Y008755D01*
X005948Y008798D01*
X005948Y008842D01*
X005992Y008885D01*
X006122Y008885D01*
X006122Y008798D01*
X006122Y008885D02*
X006035Y008972D01*
X005948Y009015D01*
X005827Y008928D02*
X005697Y008928D01*
X005654Y008885D01*
X005654Y008798D01*
X005697Y008755D01*
X005827Y008755D01*
X005827Y008668D02*
X005827Y008928D01*
X005920Y008015D02*
X005877Y007972D01*
X005877Y007928D01*
X005920Y007885D01*
X006007Y007885D01*
X006050Y007928D01*
X006050Y007972D01*
X006007Y008015D01*
X005920Y008015D01*
X005920Y007885D02*
X005877Y007842D01*
X005877Y007798D01*
X005920Y007755D01*
X006007Y007755D01*
X006050Y007798D01*
X006050Y007842D01*
X006007Y007885D01*
X006171Y007755D02*
X006345Y007755D01*
X006258Y007755D02*
X006258Y008015D01*
X006345Y007928D01*
X006761Y007928D02*
X006761Y007712D01*
X006804Y007668D01*
X006847Y007668D01*
X006891Y007755D02*
X006761Y007755D01*
X006891Y007755D02*
X006934Y007798D01*
X006934Y007928D01*
X007087Y008015D02*
X007087Y007755D01*
X007044Y007755D02*
X007131Y007755D01*
X007252Y007755D02*
X007252Y007885D01*
X007295Y007928D01*
X007425Y007928D01*
X007425Y007755D01*
X007546Y007798D02*
X007546Y007972D01*
X007590Y008015D01*
X007677Y008015D01*
X007720Y007972D01*
X007720Y007798D01*
X007677Y007755D01*
X007590Y007755D01*
X007546Y007798D01*
X007131Y008015D02*
X007087Y008015D01*
X008136Y007972D02*
X008136Y007798D01*
X008179Y007755D01*
X008266Y007755D01*
X008309Y007798D01*
X008309Y007972D01*
X008266Y008015D01*
X008179Y008015D01*
X008136Y007972D01*
X008430Y007972D02*
X008474Y008015D01*
X008561Y008015D01*
X008604Y007972D01*
X008604Y007798D01*
X008561Y007755D01*
X008474Y007755D01*
X008430Y007798D01*
X008430Y007885D01*
X008517Y007885D01*
X008714Y007928D02*
X008800Y007928D01*
X008757Y007972D02*
X008757Y007798D01*
X008714Y007755D01*
X008910Y007755D02*
X008953Y007798D01*
X008953Y007972D01*
X008910Y007928D02*
X008997Y007928D01*
X009118Y007885D02*
X009161Y007928D01*
X009248Y007928D01*
X009248Y007842D02*
X009118Y007842D01*
X009118Y007885D02*
X009118Y007755D01*
X009248Y007755D01*
X009291Y007798D01*
X009248Y007842D01*
X009413Y007842D02*
X009413Y007798D01*
X009456Y007755D01*
X009586Y007755D01*
X009586Y008015D01*
X009456Y008015D01*
X009413Y007972D01*
X009413Y007928D01*
X009456Y007885D01*
X009586Y007885D01*
X009456Y007885D02*
X009413Y007842D01*
X005756Y007928D02*
X005756Y007668D01*
X005756Y007755D02*
X005625Y007755D01*
X005582Y007798D01*
X005582Y007885D01*
X005625Y007928D01*
X005756Y007928D01*
X007411Y027020D02*
X008581Y027020D01*
X008581Y028180D02*
X007411Y028180D01*
D15*
X013866Y017850D03*
X021366Y017850D03*
X029741Y017850D03*
X037241Y017850D03*
X045616Y017850D03*
X053116Y017850D03*
X061491Y017850D03*
D16*
X026890Y012876D02*
X026797Y012876D01*
X026610Y012876D02*
X026236Y012876D01*
X026236Y012783D02*
X026236Y012970D01*
X026329Y013213D02*
X026236Y013306D01*
X026236Y013586D01*
X026143Y013586D02*
X026610Y013586D01*
X026610Y013306D01*
X026516Y013213D01*
X026329Y013213D01*
X026049Y013399D02*
X026049Y013493D01*
X026143Y013586D01*
X026236Y013857D02*
X026610Y013857D01*
X026610Y014137D01*
X026516Y014231D01*
X026236Y014231D01*
X026236Y015146D02*
X026236Y015427D01*
X026329Y015520D01*
X026516Y015520D01*
X026610Y015427D01*
X026610Y015146D01*
X026797Y015146D02*
X026236Y015146D01*
X026329Y015791D02*
X026236Y015884D01*
X026236Y016164D01*
X026143Y016164D02*
X026049Y016071D01*
X026049Y015978D01*
X026143Y016164D02*
X026610Y016164D01*
X026610Y016435D02*
X026516Y016435D01*
X026516Y016529D01*
X026610Y016529D01*
X026610Y016435D01*
X026329Y016435D02*
X026236Y016435D01*
X026236Y016529D01*
X026329Y016529D01*
X026329Y016435D01*
X026329Y015791D02*
X026610Y015791D01*
X026329Y017402D02*
X026236Y017496D01*
X026236Y017589D01*
X026329Y017682D01*
X026797Y017682D01*
X026797Y017589D02*
X026797Y017776D01*
X026516Y018047D02*
X026610Y018140D01*
X026610Y018327D01*
X026516Y018420D01*
X026423Y018420D01*
X026423Y018047D01*
X026516Y018047D02*
X026329Y018047D01*
X026236Y018140D01*
X026236Y018327D01*
X026236Y018691D02*
X026797Y018691D01*
X026610Y018785D02*
X026516Y018691D01*
X026610Y018785D02*
X026610Y018972D01*
X026516Y019065D01*
X026236Y019065D01*
X026329Y019336D02*
X026236Y019429D01*
X026236Y019710D01*
X026610Y019710D01*
X026610Y019336D02*
X026329Y019336D01*
X026329Y020625D02*
X026236Y020718D01*
X026236Y020905D01*
X026329Y020999D01*
X026516Y020999D01*
X026516Y020812D01*
X026703Y020625D02*
X026329Y020625D01*
X026703Y020625D02*
X026797Y020718D01*
X026797Y020905D01*
X026703Y020999D01*
X026610Y021363D02*
X026610Y021550D01*
X026516Y021643D01*
X026236Y021643D01*
X026236Y021363D01*
X026329Y021270D01*
X026423Y021363D01*
X026423Y021643D01*
X026423Y021914D02*
X026610Y022101D01*
X026610Y022194D01*
X026516Y022451D02*
X026329Y022451D01*
X026236Y022545D01*
X026236Y022825D01*
X026236Y023096D02*
X026236Y023283D01*
X026236Y023189D02*
X026610Y023189D01*
X026610Y023096D01*
X026797Y023189D02*
X026890Y023189D01*
X026610Y022825D02*
X026610Y022545D01*
X026516Y022451D01*
X026610Y021914D02*
X026236Y021914D01*
X026329Y023525D02*
X026423Y023619D01*
X026423Y023899D01*
X026516Y023899D02*
X026236Y023899D01*
X026236Y023619D01*
X026329Y023525D01*
X026610Y023619D02*
X026610Y023806D01*
X026516Y023899D01*
X026610Y012876D02*
X026610Y012783D01*
X026610Y012512D02*
X026610Y012232D01*
X026516Y012138D01*
X026423Y012232D01*
X026423Y012419D01*
X026329Y012512D01*
X026236Y012419D01*
X026236Y012138D01*
X026423Y011867D02*
X026423Y011494D01*
X026516Y011494D02*
X026610Y011587D01*
X026610Y011774D01*
X026516Y011867D01*
X026423Y011867D01*
X026236Y011774D02*
X026236Y011587D01*
X026329Y011494D01*
X026516Y011494D01*
X026329Y011223D02*
X026703Y011223D01*
X026797Y011130D01*
X026797Y010849D01*
X026236Y010849D01*
X026236Y011130D01*
X026329Y011223D01*
D17*
X005241Y008600D02*
X005241Y007600D01*
X004741Y007600D01*
X004741Y008600D02*
X005241Y008600D01*
X005241Y019600D01*
X004741Y019600D01*
D18*
X005616Y008600D02*
X005491Y008475D01*
X005616Y008350D01*
X005491Y008475D02*
X009491Y008475D01*
X009491Y007475D02*
X005491Y007475D01*
X005616Y007350D01*
X005491Y007475D02*
X005616Y007600D01*
D19*
X010526Y018654D02*
X010653Y018781D01*
X010685Y018781D01*
X010716Y018749D01*
X010716Y018686D01*
X010685Y018654D01*
X010526Y018654D02*
X010526Y018781D01*
M02*
